<svg width="66" height="22" viewBox="0 0 66 22" fill="none" xmlns="http://www.w3.org/2000/svg">
<path d="M24.0449 13.808L22.6949 10.31C22.6549 10.206 22.6129 10.086 22.5689 9.95C22.5249 9.81 22.4829 9.662 22.4429 9.506C22.3589 9.83 22.2729 10.1 22.1849 10.316L20.8349 13.808H24.0449ZM26.4689 17H25.5689C25.4649 17 25.3809 16.974 25.3169 16.922C25.2529 16.87 25.2049 16.804 25.1729 16.724L24.3689 14.648H20.5109L19.7069 16.724C19.6829 16.796 19.6369 16.86 19.5689 16.916C19.5009 16.972 19.4169 17 19.3169 17H18.4169L21.8549 8.402H23.0309L26.4689 17ZM32.0755 10.922L29.5975 17H28.6375L26.1595 10.922H27.0295C27.1175 10.922 27.1895 10.944 27.2455 10.988C27.3015 11.032 27.3395 11.084 27.3595 11.144L28.9015 15.056C28.9495 15.204 28.9915 15.348 29.0275 15.488C29.0635 15.628 29.0975 15.768 29.1295 15.908C29.1615 15.768 29.1955 15.628 29.2315 15.488C29.2675 15.348 29.3115 15.204 29.3635 15.056L30.9235 11.144C30.9475 11.08 30.9875 11.028 31.0435 10.988C31.0995 10.944 31.1655 10.922 31.2415 10.922H32.0755ZM36.2201 14.264C35.7281 14.28 35.3081 14.32 34.9601 14.384C34.6161 14.444 34.3341 14.524 34.1141 14.624C33.8981 14.724 33.7401 14.842 33.6401 14.978C33.5441 15.114 33.4961 15.266 33.4961 15.434C33.4961 15.594 33.5221 15.732 33.5741 15.848C33.6261 15.964 33.6961 16.06 33.7841 16.136C33.8761 16.208 33.9821 16.262 34.1021 16.298C34.2261 16.33 34.3581 16.346 34.4981 16.346C34.6861 16.346 34.8581 16.328 35.0141 16.292C35.1701 16.252 35.3161 16.196 35.4521 16.124C35.5921 16.052 35.7241 15.966 35.8481 15.866C35.9761 15.766 36.1001 15.652 36.2201 15.524V14.264ZM32.7701 11.78C33.1061 11.456 33.4681 11.214 33.8561 11.054C34.2441 10.894 34.6741 10.814 35.1461 10.814C35.4861 10.814 35.7881 10.87 36.0521 10.982C36.3161 11.094 36.5381 11.25 36.7181 11.45C36.8981 11.65 37.0341 11.892 37.1261 12.176C37.2181 12.46 37.2641 12.772 37.2641 13.112V17H36.7901C36.6861 17 36.6061 16.984 36.5501 16.952C36.4941 16.916 36.4501 16.848 36.4181 16.748L36.2981 16.172C36.1381 16.32 35.9821 16.452 35.8301 16.568C35.6781 16.68 35.5181 16.776 35.3501 16.856C35.1821 16.932 35.0021 16.99 34.8101 17.03C34.6221 17.074 34.4121 17.096 34.1801 17.096C33.9441 17.096 33.7221 17.064 33.5141 17C33.3061 16.932 33.1241 16.832 32.9681 16.7C32.8161 16.568 32.6941 16.402 32.6021 16.202C32.5141 15.998 32.4701 15.758 32.4701 15.482C32.4701 15.242 32.5361 15.012 32.6681 14.792C32.8001 14.568 33.0141 14.37 33.3101 14.198C33.6061 14.026 33.9921 13.886 34.4681 13.778C34.9441 13.666 35.5281 13.602 36.2201 13.586V13.112C36.2201 12.64 36.1181 12.284 35.9141 12.044C35.7101 11.8 35.4121 11.678 35.0201 11.678C34.7561 11.678 34.5341 11.712 34.3541 11.78C34.1781 11.844 34.0241 11.918 33.8921 12.002C33.7641 12.082 33.6521 12.156 33.5561 12.224C33.4641 12.288 33.3721 12.32 33.2801 12.32C33.2081 12.32 33.1461 12.302 33.0941 12.266C33.0421 12.226 32.9981 12.178 32.9621 12.122L32.7701 11.78ZM40.0189 10.922V17H38.9509V10.922H40.0189ZM40.2469 9.014C40.2469 9.118 40.2249 9.216 40.1809 9.308C40.1409 9.396 40.0849 9.476 40.0129 9.548C39.9449 9.616 39.8629 9.67 39.7669 9.71C39.6749 9.75 39.5769 9.77 39.4729 9.77C39.3689 9.77 39.2709 9.75 39.1789 9.71C39.0909 9.67 39.0129 9.616 38.9449 9.548C38.8769 9.476 38.8229 9.396 38.7829 9.308C38.7429 9.216 38.7229 9.118 38.7229 9.014C38.7229 8.91 38.7429 8.812 38.7829 8.72C38.8229 8.624 38.8769 8.542 38.9449 8.474C39.0129 8.402 39.0909 8.346 39.1789 8.306C39.2709 8.266 39.3689 8.246 39.4729 8.246C39.5769 8.246 39.6749 8.266 39.7669 8.306C39.8629 8.346 39.9449 8.402 40.0129 8.474C40.0849 8.542 40.1409 8.624 40.1809 8.72C40.2249 8.812 40.2469 8.91 40.2469 9.014ZM42.8777 8.162V17H41.8097V8.162H42.8777ZM47.9037 14.264C47.4117 14.28 46.9917 14.32 46.6437 14.384C46.2997 14.444 46.0177 14.524 45.7977 14.624C45.5817 14.724 45.4237 14.842 45.3237 14.978C45.2277 15.114 45.1797 15.266 45.1797 15.434C45.1797 15.594 45.2057 15.732 45.2577 15.848C45.3097 15.964 45.3797 16.06 45.4677 16.136C45.5597 16.208 45.6657 16.262 45.7857 16.298C45.9097 16.33 46.0417 16.346 46.1817 16.346C46.3697 16.346 46.5417 16.328 46.6977 16.292C46.8537 16.252 46.9997 16.196 47.1357 16.124C47.2757 16.052 47.4077 15.966 47.5317 15.866C47.6597 15.766 47.7837 15.652 47.9037 15.524V14.264ZM44.4537 11.78C44.7897 11.456 45.1517 11.214 45.5397 11.054C45.9277 10.894 46.3577 10.814 46.8297 10.814C47.1697 10.814 47.4717 10.87 47.7357 10.982C47.9997 11.094 48.2217 11.25 48.4017 11.45C48.5817 11.65 48.7177 11.892 48.8097 12.176C48.9017 12.46 48.9477 12.772 48.9477 13.112V17H48.4737C48.3697 17 48.2897 16.984 48.2337 16.952C48.1777 16.916 48.1337 16.848 48.1017 16.748L47.9817 16.172C47.8217 16.32 47.6657 16.452 47.5137 16.568C47.3617 16.68 47.2017 16.776 47.0337 16.856C46.8657 16.932 46.6857 16.99 46.4937 17.03C46.3057 17.074 46.0957 17.096 45.8637 17.096C45.6277 17.096 45.4057 17.064 45.1977 17C44.9897 16.932 44.8077 16.832 44.6517 16.7C44.4997 16.568 44.3777 16.402 44.2857 16.202C44.1977 15.998 44.1537 15.758 44.1537 15.482C44.1537 15.242 44.2197 15.012 44.3517 14.792C44.4837 14.568 44.6977 14.37 44.9937 14.198C45.2897 14.026 45.6757 13.886 46.1517 13.778C46.6277 13.666 47.2117 13.602 47.9037 13.586V13.112C47.9037 12.64 47.8017 12.284 47.5977 12.044C47.3937 11.8 47.0957 11.678 46.7037 11.678C46.4397 11.678 46.2177 11.712 46.0377 11.78C45.8617 11.844 45.7077 11.918 45.5757 12.002C45.4477 12.082 45.3357 12.156 45.2397 12.224C45.1477 12.288 45.0557 12.32 44.9637 12.32C44.8917 12.32 44.8297 12.302 44.7777 12.266C44.7257 12.226 44.6817 12.178 44.6457 12.122L44.4537 11.78ZM51.6485 15.536C51.8445 15.8 52.0585 15.986 52.2905 16.094C52.5265 16.202 52.7845 16.256 53.0645 16.256C53.6365 16.256 54.0745 16.054 54.3785 15.65C54.6825 15.246 54.8345 14.644 54.8345 13.844C54.8345 13.1 54.6985 12.554 54.4265 12.206C54.1585 11.854 53.7745 11.678 53.2745 11.678C52.9265 11.678 52.6225 11.758 52.3625 11.918C52.1065 12.078 51.8685 12.304 51.6485 12.596V15.536ZM51.6485 11.798C51.9045 11.502 52.1925 11.266 52.5125 11.09C52.8365 10.914 53.2085 10.826 53.6285 10.826C53.9845 10.826 54.3045 10.894 54.5885 11.03C54.8765 11.166 55.1205 11.364 55.3205 11.624C55.5205 11.88 55.6725 12.192 55.7765 12.56C55.8845 12.928 55.9385 13.342 55.9385 13.802C55.9385 14.294 55.8785 14.742 55.7585 15.146C55.6385 15.55 55.4645 15.896 55.2365 16.184C55.0125 16.468 54.7385 16.69 54.4145 16.85C54.0905 17.006 53.7265 17.084 53.3225 17.084C52.9225 17.084 52.5845 17.01 52.3085 16.862C52.0365 16.71 51.7985 16.496 51.5945 16.22L51.5405 16.772C51.5085 16.924 51.4165 17 51.2645 17H50.5745V8.162H51.6485V11.798ZM58.3934 8.162V17H57.3254V8.162H58.3934ZM64.1933 13.298C64.1933 13.05 64.1573 12.824 64.0853 12.62C64.0173 12.412 63.9153 12.234 63.7793 12.086C63.6473 11.934 63.4853 11.818 63.2933 11.738C63.1013 11.654 62.8833 11.612 62.6393 11.612C62.1273 11.612 61.7213 11.762 61.4213 12.062C61.1253 12.358 60.9413 12.77 60.8693 13.298H64.1933ZM65.0573 16.148C64.9253 16.308 64.7673 16.448 64.5833 16.568C64.3993 16.684 64.2013 16.78 63.9893 16.856C63.7813 16.932 63.5653 16.988 63.3413 17.024C63.1173 17.064 62.8953 17.084 62.6753 17.084C62.2553 17.084 61.8673 17.014 61.5113 16.874C61.1593 16.73 60.8533 16.522 60.5933 16.25C60.3373 15.974 60.1373 15.634 59.9933 15.23C59.8493 14.826 59.7773 14.362 59.7773 13.838C59.7773 13.414 59.8413 13.018 59.9693 12.65C60.1013 12.282 60.2893 11.964 60.5333 11.696C60.7773 11.424 61.0753 11.212 61.4273 11.06C61.7793 10.904 62.1753 10.826 62.6153 10.826C62.9793 10.826 63.3153 10.888 63.6233 11.012C63.9353 11.132 64.2033 11.308 64.4273 11.54C64.6553 11.768 64.8333 12.052 64.9613 12.392C65.0893 12.728 65.1533 13.112 65.1533 13.544C65.1533 13.712 65.1353 13.824 65.0993 13.88C65.0633 13.936 64.9953 13.964 64.8953 13.964H60.8333C60.8453 14.348 60.8973 14.682 60.9893 14.966C61.0853 15.25 61.2173 15.488 61.3853 15.68C61.5533 15.868 61.7533 16.01 61.9853 16.106C62.2173 16.198 62.4773 16.244 62.7653 16.244C63.0333 16.244 63.2633 16.214 63.4553 16.154C63.6513 16.09 63.8193 16.022 63.9593 15.95C64.0993 15.878 64.2153 15.812 64.3073 15.752C64.4033 15.688 64.4853 15.656 64.5533 15.656C64.6413 15.656 64.7093 15.69 64.7573 15.758L65.0573 16.148Z" fill="#1BB618"/>
<path d="M24.0449 13.808L22.6949 10.31C22.6549 10.206 22.6129 10.086 22.5689 9.95C22.5249 9.81 22.4829 9.662 22.4429 9.506C22.3589 9.83 22.2729 10.1 22.1849 10.316L20.8349 13.808H24.0449ZM26.4689 17H25.5689C25.4649 17 25.3809 16.974 25.3169 16.922C25.2529 16.87 25.2049 16.804 25.1729 16.724L24.3689 14.648H20.5109L19.7069 16.724C19.6829 16.796 19.6369 16.86 19.5689 16.916C19.5009 16.972 19.4169 17 19.3169 17H18.4169L21.8549 8.402H23.0309L26.4689 17ZM32.0755 10.922L29.5975 17H28.6375L26.1595 10.922H27.0295C27.1175 10.922 27.1895 10.944 27.2455 10.988C27.3015 11.032 27.3395 11.084 27.3595 11.144L28.9015 15.056C28.9495 15.204 28.9915 15.348 29.0275 15.488C29.0635 15.628 29.0975 15.768 29.1295 15.908C29.1615 15.768 29.1955 15.628 29.2315 15.488C29.2675 15.348 29.3115 15.204 29.3635 15.056L30.9235 11.144C30.9475 11.08 30.9875 11.028 31.0435 10.988C31.0995 10.944 31.1655 10.922 31.2415 10.922H32.0755ZM36.2201 14.264C35.7281 14.28 35.3081 14.32 34.9601 14.384C34.6161 14.444 34.3341 14.524 34.1141 14.624C33.8981 14.724 33.7401 14.842 33.6401 14.978C33.5441 15.114 33.4961 15.266 33.4961 15.434C33.4961 15.594 33.5221 15.732 33.5741 15.848C33.6261 15.964 33.6961 16.06 33.7841 16.136C33.8761 16.208 33.9821 16.262 34.1021 16.298C34.2261 16.33 34.3581 16.346 34.4981 16.346C34.6861 16.346 34.8581 16.328 35.0141 16.292C35.1701 16.252 35.3161 16.196 35.4521 16.124C35.5921 16.052 35.7241 15.966 35.8481 15.866C35.9761 15.766 36.1001 15.652 36.2201 15.524V14.264ZM32.7701 11.78C33.1061 11.456 33.4681 11.214 33.8561 11.054C34.2441 10.894 34.6741 10.814 35.1461 10.814C35.4861 10.814 35.7881 10.87 36.0521 10.982C36.3161 11.094 36.5381 11.25 36.7181 11.45C36.8981 11.65 37.0341 11.892 37.1261 12.176C37.2181 12.46 37.2641 12.772 37.2641 13.112V17H36.7901C36.6861 17 36.6061 16.984 36.5501 16.952C36.4941 16.916 36.4501 16.848 36.4181 16.748L36.2981 16.172C36.1381 16.32 35.9821 16.452 35.8301 16.568C35.6781 16.68 35.5181 16.776 35.3501 16.856C35.1821 16.932 35.0021 16.99 34.8101 17.03C34.6221 17.074 34.4121 17.096 34.1801 17.096C33.9441 17.096 33.7221 17.064 33.5141 17C33.3061 16.932 33.1241 16.832 32.9681 16.7C32.8161 16.568 32.6941 16.402 32.6021 16.202C32.5141 15.998 32.4701 15.758 32.4701 15.482C32.4701 15.242 32.5361 15.012 32.6681 14.792C32.8001 14.568 33.0141 14.37 33.3101 14.198C33.6061 14.026 33.9921 13.886 34.4681 13.778C34.9441 13.666 35.5281 13.602 36.2201 13.586V13.112C36.2201 12.64 36.1181 12.284 35.9141 12.044C35.7101 11.8 35.4121 11.678 35.0201 11.678C34.7561 11.678 34.5341 11.712 34.3541 11.78C34.1781 11.844 34.0241 11.918 33.8921 12.002C33.7641 12.082 33.6521 12.156 33.5561 12.224C33.4641 12.288 33.3721 12.32 33.2801 12.32C33.2081 12.32 33.1461 12.302 33.0941 12.266C33.0421 12.226 32.9981 12.178 32.9621 12.122L32.7701 11.78ZM40.0189 10.922V17H38.9509V10.922H40.0189ZM40.2469 9.014C40.2469 9.118 40.2249 9.216 40.1809 9.308C40.1409 9.396 40.0849 9.476 40.0129 9.548C39.9449 9.616 39.8629 9.67 39.7669 9.71C39.6749 9.75 39.5769 9.77 39.4729 9.77C39.3689 9.77 39.2709 9.75 39.1789 9.71C39.0909 9.67 39.0129 9.616 38.9449 9.548C38.8769 9.476 38.8229 9.396 38.7829 9.308C38.7429 9.216 38.7229 9.118 38.7229 9.014C38.7229 8.91 38.7429 8.812 38.7829 8.72C38.8229 8.624 38.8769 8.542 38.9449 8.474C39.0129 8.402 39.0909 8.346 39.1789 8.306C39.2709 8.266 39.3689 8.246 39.4729 8.246C39.5769 8.246 39.6749 8.266 39.7669 8.306C39.8629 8.346 39.9449 8.402 40.0129 8.474C40.0849 8.542 40.1409 8.624 40.1809 8.72C40.2249 8.812 40.2469 8.91 40.2469 9.014ZM42.8777 8.162V17H41.8097V8.162H42.8777ZM47.9037 14.264C47.4117 14.28 46.9917 14.32 46.6437 14.384C46.2997 14.444 46.0177 14.524 45.7977 14.624C45.5817 14.724 45.4237 14.842 45.3237 14.978C45.2277 15.114 45.1797 15.266 45.1797 15.434C45.1797 15.594 45.2057 15.732 45.2577 15.848C45.3097 15.964 45.3797 16.06 45.4677 16.136C45.5597 16.208 45.6657 16.262 45.7857 16.298C45.9097 16.33 46.0417 16.346 46.1817 16.346C46.3697 16.346 46.5417 16.328 46.6977 16.292C46.8537 16.252 46.9997 16.196 47.1357 16.124C47.2757 16.052 47.4077 15.966 47.5317 15.866C47.6597 15.766 47.7837 15.652 47.9037 15.524V14.264ZM44.4537 11.78C44.7897 11.456 45.1517 11.214 45.5397 11.054C45.9277 10.894 46.3577 10.814 46.8297 10.814C47.1697 10.814 47.4717 10.87 47.7357 10.982C47.9997 11.094 48.2217 11.25 48.4017 11.45C48.5817 11.65 48.7177 11.892 48.8097 12.176C48.9017 12.46 48.9477 12.772 48.9477 13.112V17H48.4737C48.3697 17 48.2897 16.984 48.2337 16.952C48.1777 16.916 48.1337 16.848 48.1017 16.748L47.9817 16.172C47.8217 16.32 47.6657 16.452 47.5137 16.568C47.3617 16.68 47.2017 16.776 47.0337 16.856C46.8657 16.932 46.6857 16.99 46.4937 17.03C46.3057 17.074 46.0957 17.096 45.8637 17.096C45.6277 17.096 45.4057 17.064 45.1977 17C44.9897 16.932 44.8077 16.832 44.6517 16.7C44.4997 16.568 44.3777 16.402 44.2857 16.202C44.1977 15.998 44.1537 15.758 44.1537 15.482C44.1537 15.242 44.2197 15.012 44.3517 14.792C44.4837 14.568 44.6977 14.37 44.9937 14.198C45.2897 14.026 45.6757 13.886 46.1517 13.778C46.6277 13.666 47.2117 13.602 47.9037 13.586V13.112C47.9037 12.64 47.8017 12.284 47.5977 12.044C47.3937 11.8 47.0957 11.678 46.7037 11.678C46.4397 11.678 46.2177 11.712 46.0377 11.78C45.8617 11.844 45.7077 11.918 45.5757 12.002C45.4477 12.082 45.3357 12.156 45.2397 12.224C45.1477 12.288 45.0557 12.32 44.9637 12.32C44.8917 12.32 44.8297 12.302 44.7777 12.266C44.7257 12.226 44.6817 12.178 44.6457 12.122L44.4537 11.78ZM51.6485 15.536C51.8445 15.8 52.0585 15.986 52.2905 16.094C52.5265 16.202 52.7845 16.256 53.0645 16.256C53.6365 16.256 54.0745 16.054 54.3785 15.65C54.6825 15.246 54.8345 14.644 54.8345 13.844C54.8345 13.1 54.6985 12.554 54.4265 12.206C54.1585 11.854 53.7745 11.678 53.2745 11.678C52.9265 11.678 52.6225 11.758 52.3625 11.918C52.1065 12.078 51.8685 12.304 51.6485 12.596V15.536ZM51.6485 11.798C51.9045 11.502 52.1925 11.266 52.5125 11.09C52.8365 10.914 53.2085 10.826 53.6285 10.826C53.9845 10.826 54.3045 10.894 54.5885 11.03C54.8765 11.166 55.1205 11.364 55.3205 11.624C55.5205 11.88 55.6725 12.192 55.7765 12.56C55.8845 12.928 55.9385 13.342 55.9385 13.802C55.9385 14.294 55.8785 14.742 55.7585 15.146C55.6385 15.55 55.4645 15.896 55.2365 16.184C55.0125 16.468 54.7385 16.69 54.4145 16.85C54.0905 17.006 53.7265 17.084 53.3225 17.084C52.9225 17.084 52.5845 17.01 52.3085 16.862C52.0365 16.71 51.7985 16.496 51.5945 16.22L51.5405 16.772C51.5085 16.924 51.4165 17 51.2645 17H50.5745V8.162H51.6485V11.798ZM58.3934 8.162V17H57.3254V8.162H58.3934ZM64.1933 13.298C64.1933 13.05 64.1573 12.824 64.0853 12.62C64.0173 12.412 63.9153 12.234 63.7793 12.086C63.6473 11.934 63.4853 11.818 63.2933 11.738C63.1013 11.654 62.8833 11.612 62.6393 11.612C62.1273 11.612 61.7213 11.762 61.4213 12.062C61.1253 12.358 60.9413 12.77 60.8693 13.298H64.1933ZM65.0573 16.148C64.9253 16.308 64.7673 16.448 64.5833 16.568C64.3993 16.684 64.2013 16.78 63.9893 16.856C63.7813 16.932 63.5653 16.988 63.3413 17.024C63.1173 17.064 62.8953 17.084 62.6753 17.084C62.2553 17.084 61.8673 17.014 61.5113 16.874C61.1593 16.73 60.8533 16.522 60.5933 16.25C60.3373 15.974 60.1373 15.634 59.9933 15.23C59.8493 14.826 59.7773 14.362 59.7773 13.838C59.7773 13.414 59.8413 13.018 59.9693 12.65C60.1013 12.282 60.2893 11.964 60.5333 11.696C60.7773 11.424 61.0753 11.212 61.4273 11.06C61.7793 10.904 62.1753 10.826 62.6153 10.826C62.9793 10.826 63.3153 10.888 63.6233 11.012C63.9353 11.132 64.2033 11.308 64.4273 11.54C64.6553 11.768 64.8333 12.052 64.9613 12.392C65.0893 12.728 65.1533 13.112 65.1533 13.544C65.1533 13.712 65.1353 13.824 65.0993 13.88C65.0633 13.936 64.9953 13.964 64.8953 13.964H60.8333C60.8453 14.348 60.8973 14.682 60.9893 14.966C61.0853 15.25 61.2173 15.488 61.3853 15.68C61.5533 15.868 61.7533 16.01 61.9853 16.106C62.2173 16.198 62.4773 16.244 62.7653 16.244C63.0333 16.244 63.2633 16.214 63.4553 16.154C63.6513 16.09 63.8193 16.022 63.9593 15.95C64.0993 15.878 64.2153 15.812 64.3073 15.752C64.4033 15.688 64.4853 15.656 64.5533 15.656C64.6413 15.656 64.7093 15.69 64.7573 15.758L65.0573 16.148Z" fill="#1BB618"/>
<path d="M24.0449 13.808L22.6949 10.31C22.6549 10.206 22.6129 10.086 22.5689 9.95C22.5249 9.81 22.4829 9.662 22.4429 9.506C22.3589 9.83 22.2729 10.1 22.1849 10.316L20.8349 13.808H24.0449ZM26.4689 17H25.5689C25.4649 17 25.3809 16.974 25.3169 16.922C25.2529 16.87 25.2049 16.804 25.1729 16.724L24.3689 14.648H20.5109L19.7069 16.724C19.6829 16.796 19.6369 16.86 19.5689 16.916C19.5009 16.972 19.4169 17 19.3169 17H18.4169L21.8549 8.402H23.0309L26.4689 17ZM32.0755 10.922L29.5975 17H28.6375L26.1595 10.922H27.0295C27.1175 10.922 27.1895 10.944 27.2455 10.988C27.3015 11.032 27.3395 11.084 27.3595 11.144L28.9015 15.056C28.9495 15.204 28.9915 15.348 29.0275 15.488C29.0635 15.628 29.0975 15.768 29.1295 15.908C29.1615 15.768 29.1955 15.628 29.2315 15.488C29.2675 15.348 29.3115 15.204 29.3635 15.056L30.9235 11.144C30.9475 11.08 30.9875 11.028 31.0435 10.988C31.0995 10.944 31.1655 10.922 31.2415 10.922H32.0755ZM36.2201 14.264C35.7281 14.28 35.3081 14.32 34.9601 14.384C34.6161 14.444 34.3341 14.524 34.1141 14.624C33.8981 14.724 33.7401 14.842 33.6401 14.978C33.5441 15.114 33.4961 15.266 33.4961 15.434C33.4961 15.594 33.5221 15.732 33.5741 15.848C33.6261 15.964 33.6961 16.06 33.7841 16.136C33.8761 16.208 33.9821 16.262 34.1021 16.298C34.2261 16.33 34.3581 16.346 34.4981 16.346C34.6861 16.346 34.8581 16.328 35.0141 16.292C35.1701 16.252 35.3161 16.196 35.4521 16.124C35.5921 16.052 35.7241 15.966 35.8481 15.866C35.9761 15.766 36.1001 15.652 36.2201 15.524V14.264ZM32.7701 11.78C33.1061 11.456 33.4681 11.214 33.8561 11.054C34.2441 10.894 34.6741 10.814 35.1461 10.814C35.4861 10.814 35.7881 10.87 36.0521 10.982C36.3161 11.094 36.5381 11.25 36.7181 11.45C36.8981 11.65 37.0341 11.892 37.1261 12.176C37.2181 12.46 37.2641 12.772 37.2641 13.112V17H36.7901C36.6861 17 36.6061 16.984 36.5501 16.952C36.4941 16.916 36.4501 16.848 36.4181 16.748L36.2981 16.172C36.1381 16.32 35.9821 16.452 35.8301 16.568C35.6781 16.68 35.5181 16.776 35.3501 16.856C35.1821 16.932 35.0021 16.99 34.8101 17.03C34.6221 17.074 34.4121 17.096 34.1801 17.096C33.9441 17.096 33.7221 17.064 33.5141 17C33.3061 16.932 33.1241 16.832 32.9681 16.7C32.8161 16.568 32.6941 16.402 32.6021 16.202C32.5141 15.998 32.4701 15.758 32.4701 15.482C32.4701 15.242 32.5361 15.012 32.6681 14.792C32.8001 14.568 33.0141 14.37 33.3101 14.198C33.6061 14.026 33.9921 13.886 34.4681 13.778C34.9441 13.666 35.5281 13.602 36.2201 13.586V13.112C36.2201 12.64 36.1181 12.284 35.9141 12.044C35.7101 11.8 35.4121 11.678 35.0201 11.678C34.7561 11.678 34.5341 11.712 34.3541 11.78C34.1781 11.844 34.0241 11.918 33.8921 12.002C33.7641 12.082 33.6521 12.156 33.5561 12.224C33.4641 12.288 33.3721 12.32 33.2801 12.32C33.2081 12.32 33.1461 12.302 33.0941 12.266C33.0421 12.226 32.9981 12.178 32.9621 12.122L32.7701 11.78ZM40.0189 10.922V17H38.9509V10.922H40.0189ZM40.2469 9.014C40.2469 9.118 40.2249 9.216 40.1809 9.308C40.1409 9.396 40.0849 9.476 40.0129 9.548C39.9449 9.616 39.8629 9.67 39.7669 9.71C39.6749 9.75 39.5769 9.77 39.4729 9.77C39.3689 9.77 39.2709 9.75 39.1789 9.71C39.0909 9.67 39.0129 9.616 38.9449 9.548C38.8769 9.476 38.8229 9.396 38.7829 9.308C38.7429 9.216 38.7229 9.118 38.7229 9.014C38.7229 8.91 38.7429 8.812 38.7829 8.72C38.8229 8.624 38.8769 8.542 38.9449 8.474C39.0129 8.402 39.0909 8.346 39.1789 8.306C39.2709 8.266 39.3689 8.246 39.4729 8.246C39.5769 8.246 39.6749 8.266 39.7669 8.306C39.8629 8.346 39.9449 8.402 40.0129 8.474C40.0849 8.542 40.1409 8.624 40.1809 8.72C40.2249 8.812 40.2469 8.91 40.2469 9.014ZM42.8777 8.162V17H41.8097V8.162H42.8777ZM47.9037 14.264C47.4117 14.28 46.9917 14.32 46.6437 14.384C46.2997 14.444 46.0177 14.524 45.7977 14.624C45.5817 14.724 45.4237 14.842 45.3237 14.978C45.2277 15.114 45.1797 15.266 45.1797 15.434C45.1797 15.594 45.2057 15.732 45.2577 15.848C45.3097 15.964 45.3797 16.06 45.4677 16.136C45.5597 16.208 45.6657 16.262 45.7857 16.298C45.9097 16.33 46.0417 16.346 46.1817 16.346C46.3697 16.346 46.5417 16.328 46.6977 16.292C46.8537 16.252 46.9997 16.196 47.1357 16.124C47.2757 16.052 47.4077 15.966 47.5317 15.866C47.6597 15.766 47.7837 15.652 47.9037 15.524V14.264ZM44.4537 11.78C44.7897 11.456 45.1517 11.214 45.5397 11.054C45.9277 10.894 46.3577 10.814 46.8297 10.814C47.1697 10.814 47.4717 10.87 47.7357 10.982C47.9997 11.094 48.2217 11.25 48.4017 11.45C48.5817 11.65 48.7177 11.892 48.8097 12.176C48.9017 12.46 48.9477 12.772 48.9477 13.112V17H48.4737C48.3697 17 48.2897 16.984 48.2337 16.952C48.1777 16.916 48.1337 16.848 48.1017 16.748L47.9817 16.172C47.8217 16.32 47.6657 16.452 47.5137 16.568C47.3617 16.68 47.2017 16.776 47.0337 16.856C46.8657 16.932 46.6857 16.99 46.4937 17.03C46.3057 17.074 46.0957 17.096 45.8637 17.096C45.6277 17.096 45.4057 17.064 45.1977 17C44.9897 16.932 44.8077 16.832 44.6517 16.7C44.4997 16.568 44.3777 16.402 44.2857 16.202C44.1977 15.998 44.1537 15.758 44.1537 15.482C44.1537 15.242 44.2197 15.012 44.3517 14.792C44.4837 14.568 44.6977 14.37 44.9937 14.198C45.2897 14.026 45.6757 13.886 46.1517 13.778C46.6277 13.666 47.2117 13.602 47.9037 13.586V13.112C47.9037 12.64 47.8017 12.284 47.5977 12.044C47.3937 11.8 47.0957 11.678 46.7037 11.678C46.4397 11.678 46.2177 11.712 46.0377 11.78C45.8617 11.844 45.7077 11.918 45.5757 12.002C45.4477 12.082 45.3357 12.156 45.2397 12.224C45.1477 12.288 45.0557 12.32 44.9637 12.32C44.8917 12.32 44.8297 12.302 44.7777 12.266C44.7257 12.226 44.6817 12.178 44.6457 12.122L44.4537 11.78ZM51.6485 15.536C51.8445 15.8 52.0585 15.986 52.2905 16.094C52.5265 16.202 52.7845 16.256 53.0645 16.256C53.6365 16.256 54.0745 16.054 54.3785 15.65C54.6825 15.246 54.8345 14.644 54.8345 13.844C54.8345 13.1 54.6985 12.554 54.4265 12.206C54.1585 11.854 53.7745 11.678 53.2745 11.678C52.9265 11.678 52.6225 11.758 52.3625 11.918C52.1065 12.078 51.8685 12.304 51.6485 12.596V15.536ZM51.6485 11.798C51.9045 11.502 52.1925 11.266 52.5125 11.09C52.8365 10.914 53.2085 10.826 53.6285 10.826C53.9845 10.826 54.3045 10.894 54.5885 11.03C54.8765 11.166 55.1205 11.364 55.3205 11.624C55.5205 11.88 55.6725 12.192 55.7765 12.56C55.8845 12.928 55.9385 13.342 55.9385 13.802C55.9385 14.294 55.8785 14.742 55.7585 15.146C55.6385 15.55 55.4645 15.896 55.2365 16.184C55.0125 16.468 54.7385 16.69 54.4145 16.85C54.0905 17.006 53.7265 17.084 53.3225 17.084C52.9225 17.084 52.5845 17.01 52.3085 16.862C52.0365 16.71 51.7985 16.496 51.5945 16.22L51.5405 16.772C51.5085 16.924 51.4165 17 51.2645 17H50.5745V8.162H51.6485V11.798ZM58.3934 8.162V17H57.3254V8.162H58.3934ZM64.1933 13.298C64.1933 13.05 64.1573 12.824 64.0853 12.62C64.0173 12.412 63.9153 12.234 63.7793 12.086C63.6473 11.934 63.4853 11.818 63.2933 11.738C63.1013 11.654 62.8833 11.612 62.6393 11.612C62.1273 11.612 61.7213 11.762 61.4213 12.062C61.1253 12.358 60.9413 12.77 60.8693 13.298H64.1933ZM65.0573 16.148C64.9253 16.308 64.7673 16.448 64.5833 16.568C64.3993 16.684 64.2013 16.78 63.9893 16.856C63.7813 16.932 63.5653 16.988 63.3413 17.024C63.1173 17.064 62.8953 17.084 62.6753 17.084C62.2553 17.084 61.8673 17.014 61.5113 16.874C61.1593 16.73 60.8533 16.522 60.5933 16.25C60.3373 15.974 60.1373 15.634 59.9933 15.23C59.8493 14.826 59.7773 14.362 59.7773 13.838C59.7773 13.414 59.8413 13.018 59.9693 12.65C60.1013 12.282 60.2893 11.964 60.5333 11.696C60.7773 11.424 61.0753 11.212 61.4273 11.06C61.7793 10.904 62.1753 10.826 62.6153 10.826C62.9793 10.826 63.3153 10.888 63.6233 11.012C63.9353 11.132 64.2033 11.308 64.4273 11.54C64.6553 11.768 64.8333 12.052 64.9613 12.392C65.0893 12.728 65.1533 13.112 65.1533 13.544C65.1533 13.712 65.1353 13.824 65.0993 13.88C65.0633 13.936 64.9953 13.964 64.8953 13.964H60.8333C60.8453 14.348 60.8973 14.682 60.9893 14.966C61.0853 15.25 61.2173 15.488 61.3853 15.68C61.5533 15.868 61.7533 16.01 61.9853 16.106C62.2173 16.198 62.4773 16.244 62.7653 16.244C63.0333 16.244 63.2633 16.214 63.4553 16.154C63.6513 16.09 63.8193 16.022 63.9593 15.95C64.0993 15.878 64.2153 15.812 64.3073 15.752C64.4033 15.688 64.4853 15.656 64.5533 15.656C64.6413 15.656 64.7093 15.69 64.7573 15.758L65.0573 16.148Z" fill="#1BB618"/>
<g clip-path="url(#clip0_2124_11764)">
<path d="M14.4375 16.5H7.5625V17.875H14.4375V16.5Z" fill="#1BB618"/>
<path d="M14.4375 16.5H7.5625V17.875H14.4375V16.5Z" fill="#1BB618"/>
<path d="M14.4375 16.5H7.5625V17.875H14.4375V16.5Z" fill="#1BB618"/>
<path d="M13.0625 19.25H8.9375V20.625H13.0625V19.25Z" fill="#1BB618"/>
<path d="M13.0625 19.25H8.9375V20.625H13.0625V19.25Z" fill="#1BB618"/>
<path d="M13.0625 19.25H8.9375V20.625H13.0625V19.25Z" fill="#1BB618"/>
<path d="M7.43501 12.4717C6.79115 11.9805 6.27791 11.3386 5.94049 10.6024C5.60307 9.86622 5.45181 9.05838 5.50004 8.25C5.50172 6.79182 6.08172 5.39385 7.1128 4.36276C8.14389 3.33167 9.54187 2.75167 11 2.75V1.375C9.1773 1.37702 7.42979 2.102 6.14092 3.39087C4.85204 4.67975 4.12706 6.42726 4.12504 8.25C4.07837 9.24882 4.2697 10.2444 4.68328 11.1548C5.09685 12.0652 5.72083 12.8642 6.50379 13.4861C7.19934 14.1287 7.56254 14.4935 7.56254 15.125H8.93754C8.93754 13.86 8.17387 13.1545 7.43501 12.4717Z" fill="#1BB618"/>
<path d="M7.43501 12.4717C6.79115 11.9805 6.27791 11.3386 5.94049 10.6024C5.60307 9.86622 5.45181 9.05838 5.50004 8.25C5.50172 6.79182 6.08172 5.39385 7.1128 4.36276C8.14389 3.33167 9.54187 2.75167 11 2.75V1.375C9.1773 1.37702 7.42979 2.102 6.14092 3.39087C4.85204 4.67975 4.12706 6.42726 4.12504 8.25C4.07837 9.24882 4.2697 10.2444 4.68328 11.1548C5.09685 12.0652 5.72083 12.8642 6.50379 13.4861C7.19934 14.1287 7.56254 14.4935 7.56254 15.125H8.93754C8.93754 13.86 8.17387 13.1545 7.43501 12.4717Z" fill="#1BB618"/>
<path d="M7.43501 12.4717C6.79115 11.9805 6.27791 11.3386 5.94049 10.6024C5.60307 9.86622 5.45181 9.05838 5.50004 8.25C5.50172 6.79182 6.08172 5.39385 7.1128 4.36276C8.14389 3.33167 9.54187 2.75167 11 2.75V1.375C9.1773 1.37702 7.42979 2.102 6.14092 3.39087C4.85204 4.67975 4.12706 6.42726 4.12504 8.25C4.07837 9.24882 4.2697 10.2444 4.68328 11.1548C5.09685 12.0652 5.72083 12.8642 6.50379 13.4861C7.19934 14.1287 7.56254 14.4935 7.56254 15.125H8.93754C8.93754 13.86 8.17387 13.1545 7.43501 12.4717Z" fill="#1BB618"/>
<path d="M14.4375 6.59313L11.9694 4.125L11 5.09437L14.4375 8.53187L20.625 2.34438L19.6556 1.375L14.4375 6.59313Z" fill="#1BB618"/>
<path d="M14.4375 6.59313L11.9694 4.125L11 5.09437L14.4375 8.53187L20.625 2.34438L19.6556 1.375L14.4375 6.59313Z" fill="#1BB618"/>
<path d="M14.4375 6.59313L11.9694 4.125L11 5.09437L14.4375 8.53187L20.625 2.34438L19.6556 1.375L14.4375 6.59313Z" fill="#1BB618"/>
<path d="M16.3625 9.625C16.109 10.7542 15.472 11.7606 14.5599 12.473C13.8235 13.1552 13.0625 13.8608 13.0625 15.125H14.4375C14.4375 14.4929 14.7994 14.1281 15.4929 13.4848C16.6983 12.5207 17.5067 11.1468 17.7642 9.625H16.3625Z" fill="#1BB618"/>
<path d="M16.3625 9.625C16.109 10.7542 15.472 11.7606 14.5599 12.473C13.8235 13.1552 13.0625 13.8608 13.0625 15.125H14.4375C14.4375 14.4929 14.7994 14.1281 15.4929 13.4848C16.6983 12.5207 17.5067 11.1468 17.7642 9.625H16.3625Z" fill="#1BB618"/>
<path d="M16.3625 9.625C16.109 10.7542 15.472 11.7606 14.5599 12.473C13.8235 13.1552 13.0625 13.8608 13.0625 15.125H14.4375C14.4375 14.4929 14.7994 14.1281 15.4929 13.4848C16.6983 12.5207 17.5067 11.1468 17.7642 9.625H16.3625Z" fill="#1BB618"/>
</g>
<defs>
<clipPath id="clip0_2124_11764">
<rect width="22" height="22" fill="white"/>
</clipPath>
</defs>
</svg>
