<svg width="8" height="8" viewBox="0 0 8 8" fill="none" xmlns="http://www.w3.org/2000/svg">
<g clip-path="url(#clip0_369_9612)">
<path d="M3.9987 7.66634C1.98203 7.66634 0.332031 6.01634 0.332031 3.99967C0.332031 1.98301 1.98203 0.333008 3.9987 0.333008C6.01536 0.333008 7.66536 1.98301 7.66536 3.99967C7.66536 6.01634 6.01536 7.66634 3.9987 7.66634ZM3.9987 0.666341C2.16536 0.666341 0.665365 2.16634 0.665365 3.99967C0.665365 5.83301 2.16536 7.33301 3.9987 7.33301C5.83203 7.33301 7.33203 5.83301 7.33203 3.99967C7.33203 2.16634 5.83203 0.666341 3.9987 0.666341Z" fill="#031054"/>
<path d="M4.16536 2.66699H3.83203V6.00033H4.16536V2.66699Z" fill="#031054"/>
<path d="M4.16536 2H3.83203V2.33333H4.16536V2Z" fill="#031054"/>
</g>
<defs>
<clipPath id="clip0_369_9612">
<rect width="8" height="8" fill="white"/>
</clipPath>
</defs>
</svg>
