<svg width="13" height="12" viewBox="0 0 13 12" fill="none" xmlns="http://www.w3.org/2000/svg">
<g id="352032_attach_file_icon 2" clip-path="url(#clip0_369_9328)">
<path id="Vector" d="M8.93734 3V8.75C8.93734 9.855 7.96775 10.75 6.77067 10.75C5.57359 10.75 4.604 9.855 4.604 8.75V2.5C4.604 1.81 5.21067 1.25 5.95817 1.25C6.70567 1.25 7.31234 1.81 7.31234 2.5V7.75C7.31234 8.025 7.0713 8.25 6.77067 8.25C6.47005 8.25 6.229 8.025 6.229 7.75V3H5.4165V7.75C5.4165 8.44 6.02317 9 6.77067 9C7.51817 9 8.12484 8.44 8.12484 7.75V2.5C8.12484 1.395 7.15525 0.5 5.95817 0.5C4.76109 0.5 3.7915 1.395 3.7915 2.5V8.75C3.7915 10.27 5.12671 11.5 6.77067 11.5C8.41463 11.5 9.74984 10.27 9.74984 8.75V3H8.93734Z" fill="#031054"/>
</g>
<defs>
<clipPath id="clip0_369_9328">
<rect width="13" height="12" fill="white"/>
</clipPath>
</defs>
</svg>
