<svg width="25" height="25" viewBox="0 0 25 25" fill="none" xmlns="http://www.w3.org/2000/svg">
<path d="M12.0288 2.5C9.90708 2.5 7.87225 3.34285 6.37195 4.84315C4.87166 6.34344 4.02881 8.37827 4.02881 10.5C4.02881 15.9 11.0788 22 11.3788 22.26C11.5599 22.4149 11.7905 22.5001 12.0288 22.5001C12.2672 22.5001 12.4977 22.4149 12.6788 22.26C13.0288 22 20.0288 15.9 20.0288 10.5C20.0288 8.37827 19.186 6.34344 17.6857 4.84315C16.1854 3.34285 14.1505 2.5 12.0288 2.5ZM12.0288 20.15C9.89881 18.15 6.02881 13.84 6.02881 10.5C6.02881 8.9087 6.66095 7.38258 7.78617 6.25736C8.91139 5.13214 10.4375 4.5 12.0288 4.5C13.6201 4.5 15.1462 5.13214 16.2715 6.25736C17.3967 7.38258 18.0288 8.9087 18.0288 10.5C18.0288 13.84 14.1588 18.16 12.0288 20.15ZM12.0288 6.5C11.2377 6.5 10.4643 6.7346 9.80653 7.17412C9.14873 7.61365 8.63604 8.23836 8.33329 8.96927C8.03054 9.70017 7.95133 10.5044 8.10567 11.2804C8.26001 12.0563 8.64097 12.769 9.20038 13.3284C9.75979 13.8878 10.4725 14.2688 11.2484 14.4231C12.0244 14.5775 12.8286 14.4983 13.5595 14.1955C14.2904 13.8928 14.9152 13.3801 15.3547 12.7223C15.7942 12.0645 16.0288 11.2911 16.0288 10.5C16.0288 9.43913 15.6074 8.42172 14.8572 7.67157C14.1071 6.92143 13.0897 6.5 12.0288 6.5ZM12.0288 12.5C11.6332 12.5 11.2466 12.3827 10.9177 12.1629C10.5888 11.9432 10.3324 11.6308 10.181 11.2654C10.0297 10.8999 9.99007 10.4978 10.0672 10.1098C10.1444 9.72186 10.3349 9.36549 10.6146 9.08579C10.8943 8.80608 11.2507 8.6156 11.6386 8.53843C12.0266 8.46126 12.4287 8.50087 12.7942 8.65224C13.1596 8.80362 13.472 9.05996 13.6917 9.38886C13.9115 9.71776 14.0288 10.1044 14.0288 10.5C14.0288 11.0304 13.8181 11.5391 13.443 11.9142C13.0679 12.2893 12.5592 12.5 12.0288 12.5Z" fill="#A098AE"/>
</svg>
