<svg width="385" height="345" viewBox="0 0 385 345" fill="none" xmlns="http://www.w3.org/2000/svg">
<g clip-path="url(#clip0_369_9467)">
<path d="M227.525 0H115.65C98.2499 0 84.1445 15.2374 84.1445 34.0337V310.196C84.1445 328.992 98.2499 344.23 115.65 344.23H227.525C244.925 344.23 259.03 328.992 259.03 310.196V34.0337C259.03 15.2374 244.925 0 227.525 0Z" fill="#3F3D56"/>
<path d="M256.082 34.0359V310.196C256.073 318.375 253.062 326.215 247.709 331.998C242.355 337.781 235.097 341.034 227.526 341.044H115.653C108.083 341.034 100.824 337.781 95.4711 331.998C90.1178 326.215 87.1064 318.375 87.0977 310.196V34.0359C87.1064 25.8575 90.1178 18.0169 95.4711 12.2339C100.824 6.45098 108.083 3.19794 115.653 3.18848H130.283V8.64748C130.283 11.1189 131.192 13.489 132.809 15.2365C134.427 16.9841 136.621 17.9659 138.909 17.966H204.271C206.559 17.9659 208.753 16.9841 210.37 15.2365C211.988 13.489 212.897 11.1189 212.897 8.64748V3.18848H227.526C235.097 3.19795 242.355 6.45098 247.709 12.2339C253.062 18.0169 256.073 25.8575 256.082 34.0359Z" fill="white"/>
<path d="M83.3411 69.8308C82.7722 69.8301 82.2268 69.5856 81.8245 69.1511C81.4223 68.7165 81.196 68.1273 81.1953 67.5127V62.8766C81.1953 62.2619 81.4214 61.6722 81.8238 61.2375C82.2262 60.8028 82.772 60.5586 83.3411 60.5586C83.9103 60.5586 84.4561 60.8028 84.8585 61.2375C85.2609 61.6722 85.487 62.2619 85.487 62.8766V67.5127C85.4863 68.1273 85.26 68.7165 84.8578 69.1511C84.4555 69.5856 83.9101 69.8301 83.3411 69.8308Z" fill="#3F3D56"/>
<path d="M83.3411 93.6038C82.7722 93.6031 82.2268 93.3587 81.8245 92.9241C81.4223 92.4896 81.196 91.9004 81.1953 91.2858V78.5241C81.1953 77.9093 81.4214 77.3197 81.8238 76.885C82.2262 76.4503 82.772 76.2061 83.3411 76.2061C83.9103 76.2061 84.4561 76.4503 84.8585 76.885C85.2609 77.3197 85.487 77.9093 85.487 78.5241V91.2858C85.4863 91.9004 85.26 92.4896 84.8578 92.9241C84.4555 93.3587 83.9101 93.6031 83.3411 93.6038Z" fill="#3F3D56"/>
<path d="M83.3411 112.715C82.7722 112.714 82.2268 112.47 81.8245 112.035C81.4223 111.601 81.196 111.012 81.1953 110.397V97.6354C81.1953 97.0206 81.4214 96.431 81.8238 95.9963C82.2262 95.5616 82.772 95.3174 83.3411 95.3174C83.9103 95.3174 84.4561 95.5616 84.8585 95.9963C85.2609 96.431 85.487 97.0206 85.487 97.6354V110.397C85.4863 111.012 85.26 111.601 84.8578 112.035C84.4555 112.47 83.9101 112.714 83.3411 112.715Z" fill="#3F3D56"/>
<path d="M259.298 102.284C258.729 102.283 258.184 102.039 257.782 101.604C257.379 101.17 257.153 100.581 257.152 99.9659V68.8268C257.152 68.2121 257.378 67.6224 257.781 67.1877C258.183 66.753 258.729 66.5088 259.298 66.5088C259.867 66.5088 260.413 66.753 260.816 67.1877C261.218 67.6224 261.444 68.2121 261.444 68.8268V99.9659C261.443 100.581 261.217 101.17 260.815 101.604C260.413 102.039 259.867 102.283 259.298 102.284Z" fill="#3F3D56"/>
<path d="M176.198 10.6319H159.568C159.212 10.6319 158.871 10.4793 158.619 10.2076C158.368 9.93589 158.227 9.56739 158.227 9.18315C158.227 8.79891 158.368 8.43041 158.619 8.15872C158.871 7.88702 159.212 7.73438 159.568 7.73438H176.198C176.554 7.73438 176.895 7.88702 177.146 8.15872C177.398 8.43041 177.539 8.79891 177.539 9.18315C177.539 9.56739 177.398 9.93589 177.146 10.2076C176.895 10.4793 176.554 10.6319 176.198 10.6319Z" fill="white"/>
<path d="M184.78 10.3415C185.373 10.3415 185.853 9.82257 185.853 9.18246C185.853 8.54235 185.373 8.02344 184.78 8.02344C184.187 8.02344 183.707 8.54235 183.707 9.18246C183.707 9.82257 184.187 10.3415 184.78 10.3415Z" fill="white"/>
<path d="M123.889 16.8478H109.405C108.694 16.8478 108.011 16.5426 107.508 15.9992C107.005 15.4558 106.723 14.7188 106.723 13.9503C106.723 13.1818 107.005 12.4448 107.508 11.9014C108.011 11.358 108.694 11.0527 109.405 11.0527H123.889C124.601 11.0527 125.283 11.358 125.786 11.9014C126.289 12.4448 126.572 13.1818 126.572 13.9503C126.572 14.7188 126.289 15.4558 125.786 15.9992C125.283 16.5426 124.601 16.8478 123.889 16.8478Z" fill="#E6E6E6"/>
<path d="M178.831 138.326H164.346C163.635 138.326 162.953 138.021 162.45 137.478C161.947 136.934 161.664 136.197 161.664 135.429C161.664 134.66 161.947 133.923 162.45 133.38C162.953 132.837 163.635 132.531 164.346 132.531H178.831C179.542 132.531 180.224 132.837 180.727 133.38C181.23 133.923 181.513 134.66 181.513 135.429C181.513 136.197 181.23 136.934 180.727 137.478C180.224 138.021 179.542 138.326 178.831 138.326Z" fill="#E6E6E6"/>
<path d="M218.844 16.5584C220.177 16.5584 221.258 15.3908 221.258 13.9506C221.258 12.5103 220.177 11.3428 218.844 11.3428C217.51 11.3428 216.43 12.5103 216.43 13.9506C216.43 15.3908 217.51 16.5584 218.844 16.5584Z" fill="#E6E6E6"/>
<path d="M226.355 16.5584C227.689 16.5584 228.77 15.3908 228.77 13.9506C228.77 12.5103 227.689 11.3428 226.355 11.3428C225.022 11.3428 223.941 12.5103 223.941 13.9506C223.941 15.3908 225.022 16.5584 226.355 16.5584Z" fill="#E6E6E6"/>
<path d="M233.863 16.5584C235.197 16.5584 236.277 15.3908 236.277 13.9506C236.277 12.5103 235.197 11.3428 233.863 11.3428C232.53 11.3428 231.449 12.5103 231.449 13.9506C231.449 15.3908 232.53 16.5584 233.863 16.5584Z" fill="#E6E6E6"/>
<path d="M217.887 178.893H117.712C115.133 178.89 112.661 177.781 110.837 175.811C109.013 173.841 107.987 171.17 107.984 168.384V157.528C107.987 154.742 109.013 152.071 110.837 150.101C112.661 148.131 115.133 147.023 117.712 147.02H217.887C220.466 147.023 222.938 148.131 224.762 150.101C226.586 152.071 227.612 154.742 227.615 157.528V168.384C227.612 171.17 226.586 173.841 224.762 175.811C222.938 177.781 220.466 178.89 217.887 178.893ZM117.712 148.179C115.418 148.181 113.218 149.167 111.595 150.92C109.973 152.673 109.06 155.049 109.057 157.528V168.384C109.06 170.863 109.973 173.239 111.595 174.992C113.218 176.745 115.418 177.731 117.712 177.734H217.887C220.181 177.731 222.381 176.745 224.004 174.992C225.626 173.239 226.539 170.863 226.542 168.384V157.528C226.539 155.049 225.626 152.673 224.004 150.92C222.381 149.167 220.181 148.181 217.887 148.179H117.712Z" fill="#E6E6E6"/>
<path d="M178.831 218.878H164.346C163.635 218.878 162.953 218.573 162.45 218.029C161.947 217.486 161.664 216.749 161.664 215.981C161.664 215.212 161.947 214.475 162.45 213.932C162.953 213.388 163.635 213.083 164.346 213.083H178.831C179.542 213.083 180.224 213.388 180.727 213.932C181.23 214.475 181.513 215.212 181.513 215.981C181.513 216.749 181.23 217.486 180.727 218.029C180.224 218.573 179.542 218.878 178.831 218.878Z" fill="#E6E6E6"/>
<path d="M182.16 302.908H161.021C160.506 302.909 159.997 302.8 159.521 302.587C159.046 302.375 158.614 302.064 158.25 301.671C157.886 301.278 157.597 300.812 157.4 300.299C157.203 299.785 157.102 299.235 157.102 298.679C157.102 298.123 157.203 297.573 157.4 297.06C157.597 296.546 157.886 296.08 158.25 295.687C158.614 295.294 159.046 294.983 159.521 294.771C159.997 294.558 160.506 294.45 161.021 294.45H182.16C183.198 294.45 184.194 294.896 184.928 295.689C185.662 296.482 186.075 297.558 186.075 298.679C186.075 299.801 185.662 300.876 184.928 301.669C184.194 302.462 183.198 302.908 182.16 302.908Z" fill="#4A62B6"/>
<path d="M217.887 259.444H117.712C115.133 259.441 112.661 258.333 110.837 256.363C109.013 254.393 107.987 251.722 107.984 248.936V238.08C107.987 235.294 109.013 232.623 110.837 230.653C112.661 228.683 115.133 227.574 117.712 227.571H217.887C220.466 227.574 222.938 228.683 224.762 230.653C226.586 232.623 227.612 235.294 227.615 238.08V248.936C227.612 251.722 226.586 254.393 224.762 256.363C222.938 258.333 220.466 259.441 217.887 259.444ZM117.712 228.73C115.418 228.733 113.218 229.719 111.595 231.472C109.973 233.225 109.06 235.601 109.057 238.08V248.936C109.06 251.415 109.973 253.791 111.595 255.544C113.218 257.297 115.418 258.283 117.712 258.285H217.887C220.181 258.283 222.381 257.297 224.004 255.544C225.626 253.791 226.539 251.415 226.542 248.936V238.08C226.539 235.601 225.626 233.225 224.004 231.472C222.381 229.719 220.181 228.733 217.887 228.73H117.712Z" fill="#E6E6E6"/>
<path d="M236.277 112.136H106.723V113.295H236.277V112.136Z" fill="#E6E6E6"/>
<path d="M232.908 158.129C233.034 159.097 233.505 159.975 234.221 160.574C234.937 161.174 235.84 161.448 236.74 161.338C236.923 161.313 237.103 161.271 237.279 161.214L244.487 171.75L250.723 169.681L239.405 156.4C239.128 155.629 238.622 154.979 237.967 154.551C237.311 154.124 236.543 153.942 235.783 154.036C235.35 154.093 234.933 154.242 234.554 154.474C234.174 154.706 233.841 155.017 233.573 155.388C233.305 155.759 233.108 156.183 232.991 156.637C232.875 157.09 232.843 157.564 232.896 158.031C232.9 158.064 232.904 158.096 232.908 158.129Z" fill="#FFB6B6"/>
<path d="M323.603 232.105C322.959 231.417 322.589 230.485 322.572 229.507C322.554 228.529 322.891 227.582 323.51 226.868C323.638 226.725 323.777 226.594 323.925 226.476L320.41 213.937L325.673 209.771L328.768 227.511C329.174 228.211 329.355 229.038 329.281 229.861C329.206 230.684 328.882 231.458 328.358 232.061C328.057 232.401 327.697 232.674 327.298 232.864C326.9 233.053 326.47 233.157 326.035 233.167C325.599 233.177 325.166 233.095 324.76 232.925C324.354 232.754 323.983 232.499 323.668 232.174C323.646 232.151 323.624 232.128 323.603 232.105Z" fill="#FFB6B6"/>
<path d="M293.776 337.524L288.464 337.523L285.938 315.392L293.777 315.392L293.776 337.524Z" fill="#FFB6B6"/>
<path d="M293.962 343.51L277.629 343.509V343.286C277.629 341.465 278.299 339.718 279.491 338.43C280.683 337.142 282.3 336.419 283.986 336.419L286.97 333.974L292.537 336.419L293.963 336.419L293.962 343.51Z" fill="#2F2E41"/>
<path d="M316.846 337.524L311.535 337.523L309.008 315.392L316.847 315.392L316.846 337.524Z" fill="#FFB6B6"/>
<path d="M317.033 343.51L300.699 343.509V343.286C300.699 341.465 301.369 339.718 302.561 338.43C303.754 337.142 305.371 336.419 307.057 336.419L310.041 333.974L315.607 336.419L317.033 336.419L317.033 343.51Z" fill="#2F2E41"/>
<path d="M278.042 218.564C278.042 218.564 271.996 227.669 276.36 243.399C280.724 259.13 278.274 273.193 279.499 276.013C280.724 278.833 283.19 281.511 281.152 283.649C279.115 285.787 278.042 287.526 279.651 288.105C281.261 288.685 286.625 329.251 286.625 329.251L295.745 329.83C295.745 329.83 299.049 310.986 295.519 295.779C295.519 295.779 296.294 284.739 294.678 281.496C293.063 278.254 293.379 281.178 293.489 277.108C293.55 274.165 293.947 271.24 294.672 268.402C295.208 266.084 295.519 242.721 295.519 242.721L307.375 271.58C307.731 272.648 307.865 273.788 307.767 274.918C307.547 276.515 307.545 278.901 307.814 279.737C308.083 280.572 308.383 280.747 308.233 282.398C308.083 284.049 308.083 327.826 308.083 327.826H318.276L323.104 284.049C322.236 283.009 321.513 281.838 320.958 280.572C319.886 278.254 319.844 278.126 320.401 276.451C320.958 274.776 320.958 271.514 320.958 270.537C320.958 269.561 321.516 225.23 314.531 218.71C307.547 212.189 278.042 218.564 278.042 218.564Z" fill="#2F2E41"/>
<path d="M309.342 148.974L299.159 146.124L294.406 139.042L283.118 140.541L280.716 150.2L272.68 155.239C272.68 155.239 277.121 205.988 276.065 208.775C275.008 211.561 271.22 211.331 274.455 214.923C277.691 218.515 278.119 217.068 277.368 220.979C276.618 224.89 271.145 229.029 277.368 228.988C283.592 228.946 321.144 228.367 320.071 223.731C318.998 219.095 319.015 220.272 317.397 217.365C315.779 214.459 314.69 216.083 315.235 211.794C315.779 207.505 315.243 204.607 315.243 202.289C315.243 199.971 313.445 178.907 313.445 178.907L309.342 148.974Z" fill="#3F3D56"/>
<path d="M277.575 154.265C277.575 154.265 267.5 153.03 265.354 158.246C263.209 163.461 257.801 174.321 257.801 174.321C257.801 174.321 253.584 169.557 253.176 167.397C252.83 165.564 252.64 168.626 249.807 165.311C248.538 163.825 249.611 163.825 248.002 163.245L244.783 162.086L239.418 167.302C239.418 167.302 239.314 173.604 242.101 173.677C244.888 173.75 241.028 172.518 244.783 176.574C246.722 178.669 244.944 178.322 248.175 180.453C251.406 182.585 251.042 182.576 252.029 183.74C253.016 184.903 258.313 185.75 258.313 185.75L282.035 171.57L277.575 154.265Z" fill="#3F3D56"/>
<path d="M304.047 151.166C304.047 151.166 308.367 144.329 315.751 153.212C323.134 162.095 328.655 202.647 328.309 204.102C327.963 205.558 326.015 204.723 328.33 207.169C330.645 209.615 332.254 207.876 330.645 209.615C329.035 211.353 325.677 212.989 328.429 213.62C331.181 214.251 320.475 217.723 320.475 217.723C320.475 217.723 318.915 217.107 318.849 213.046C318.812 210.765 319.885 209.606 318.275 209.027C316.666 208.447 318.645 204.577 318.476 203.909C318.306 203.24 308.114 173.685 308.114 173.685L304.047 151.166Z" fill="#3F3D56"/>
<path d="M287.068 137.83C293.899 137.83 299.436 131.848 299.436 124.468C299.436 117.089 293.899 111.107 287.068 111.107C280.237 111.107 274.699 117.089 274.699 124.468C274.699 131.848 280.237 137.83 287.068 137.83Z" fill="#FFB6B6"/>
<path d="M295.208 134.849C292.284 132.38 296.281 121.52 291.453 123.838C291.453 123.838 285.552 119.782 284.366 122.447C282.993 125.534 278.111 124.134 275.112 123.044C275.348 122.452 275.515 121.832 275.611 121.196C275.057 121.667 274.471 122.091 273.857 122.465C273.445 122.227 273.08 121.904 272.784 121.514C272.491 121.153 272.308 120.703 272.259 120.225C272.21 119.747 272.298 119.265 272.51 118.843C273.009 118.014 274.039 117.759 274.645 117.023C274.715 116.92 274.761 116.799 274.779 116.673C274.796 116.546 274.785 116.416 274.746 116.295C274.674 115.999 274.663 115.689 274.714 115.388C274.765 115.087 274.877 114.802 275.042 114.553C275.207 114.304 275.421 114.097 275.668 113.947C275.916 113.798 276.191 113.709 276.473 113.687C276.587 113.691 276.7 113.664 276.802 113.61C277.311 113.273 277.781 112.873 278.202 112.416C277.497 112.453 276.79 112.432 276.088 112.352C275.944 112.335 275.799 112.318 275.654 112.294C275.922 111.614 276.323 111.005 276.83 110.508C277.336 110.011 277.936 109.638 278.588 109.414C279.965 108.965 281.399 108.748 282.837 108.771C283.669 108.742 284.5 108.713 285.326 108.684C287.078 108.549 288.839 108.615 290.578 108.881C292.436 109.247 294.196 110.052 295.733 111.238C297.269 112.424 298.545 113.962 299.467 115.742C301.286 119.306 303.255 130.792 295.208 134.849Z" fill="#2F2E41"/>
<path d="M263.645 197.763L199.887 222.115C198.311 222.715 196.579 222.614 195.071 221.836C193.562 221.058 192.401 219.666 191.843 217.964L180.89 184.5C180.334 182.797 180.427 180.925 181.147 179.296C181.868 177.667 183.157 176.413 184.732 175.809L248.49 151.458C250.066 150.858 251.799 150.958 253.307 151.736C254.815 152.514 255.976 153.907 256.535 155.608L267.487 189.073C268.043 190.776 267.95 192.647 267.23 194.276C266.51 195.905 265.22 197.16 263.645 197.763Z" fill="#4A62B6"/>
<path d="M195.908 183.579C191.682 186.584 186.265 184.323 184.371 181.03L184.673 180.844C188.271 178.422 193.614 179.771 195.908 183.579Z" fill="white"/>
<path d="M248.871 192.102C248.431 192.3 247.957 192.397 247.481 192.387C247.005 192.378 246.535 192.263 246.102 192.048C244.288 191.074 243.436 188.187 242.752 185.866C242.553 185.191 242.365 184.554 242.174 184.033L242.171 184.025C241.838 182.991 241.896 181.857 242.332 180.869C242.769 179.881 243.548 179.119 244.502 178.749L253.078 175.473C253.517 175.276 253.99 175.179 254.466 175.188C254.942 175.197 255.411 175.313 255.843 175.527C257.657 176.499 258.509 179.386 259.194 181.705C259.394 182.382 259.582 183.021 259.775 183.543C260.109 184.577 260.053 185.713 259.616 186.703C259.18 187.693 258.399 188.456 257.444 188.827L248.871 192.102Z" fill="white"/>
<path d="M196.32 201.318C196.167 201.383 196.001 201.402 195.838 201.373C195.676 201.344 195.524 201.268 195.399 201.152C195.253 201.014 195.142 200.837 195.077 200.639C195.012 200.441 194.995 200.228 195.028 200.021C195.059 199.843 195.135 199.678 195.248 199.543C195.361 199.409 195.506 199.311 195.667 199.26L198.931 198.013C199.086 197.944 199.255 197.922 199.421 197.95C199.587 197.979 199.742 198.056 199.869 198.173C200.016 198.311 200.127 198.488 200.192 198.686C200.256 198.884 200.273 199.097 200.24 199.304C200.208 199.482 200.132 199.647 200.019 199.781C199.906 199.915 199.762 200.013 199.601 200.064L196.337 201.311L196.32 201.318Z" fill="white"/>
<path d="M194.584 209.317C194.298 209.375 194.002 209.347 193.729 209.237C193.456 209.127 193.216 208.938 193.034 208.692C192.823 208.397 192.685 208.049 192.635 207.681C192.584 207.312 192.623 206.936 192.746 206.588C192.856 206.29 193.04 206.03 193.278 205.837C193.517 205.645 193.799 205.528 194.096 205.499L206.253 201.091C206.544 201.028 206.846 201.052 207.126 201.162C207.405 201.272 207.651 201.463 207.836 201.714C208.047 202.008 208.184 202.356 208.235 202.725C208.285 203.093 208.247 203.469 208.123 203.817C208.013 204.115 207.828 204.374 207.59 204.566C207.352 204.758 207.069 204.875 206.774 204.905L194.616 209.312L194.584 209.317Z" fill="white"/>
<path d="M258.921 162.893L183.492 191.702L183.62 192.091L259.049 163.282L258.921 162.893Z" fill="white"/>
<path d="M246.927 185.267C248.112 185.267 249.073 184.229 249.073 182.949C249.073 181.669 248.112 180.631 246.927 180.631C245.742 180.631 244.781 181.669 244.781 182.949C244.781 184.229 245.742 185.267 246.927 185.267Z" fill="#4A62B6"/>
<path d="M253.902 185.846C254.791 185.846 255.512 185.068 255.512 184.108C255.512 183.148 254.791 182.369 253.902 182.369C253.014 182.369 252.293 183.148 252.293 184.108C252.293 185.068 253.014 185.846 253.902 185.846Z" fill="#4A62B6"/>
<path d="M2.82553e-06 344.311C-0.000247201 344.401 0.0160985 344.491 0.0480938 344.575C0.0800892 344.659 0.127108 344.735 0.18644 344.799C0.245773 344.863 0.316248 344.914 0.393817 344.948C0.471386 344.983 0.554515 345.001 0.638422 345H384.362C384.531 345 384.693 344.928 384.813 344.798C384.933 344.669 385 344.494 385 344.311C385 344.128 384.933 343.952 384.813 343.823C384.693 343.694 384.531 343.621 384.362 343.621H0.638389C0.554486 343.621 0.471365 343.638 0.393801 343.673C0.316237 343.708 0.245761 343.758 0.186432 343.822C0.127103 343.887 0.0800882 343.963 0.0480938 344.046C0.0160995 344.13 -0.000244333 344.22 2.82553e-06 344.311Z" fill="#CCCCCC"/>
<path d="M133.393 329.367C133.084 329.383 132.779 329.295 132.518 329.117C132.257 328.938 132.053 328.678 131.934 328.37C131.815 328.062 131.786 327.722 131.852 327.396C131.917 327.07 132.074 326.774 132.301 326.548L132.404 326.104C132.391 326.069 132.377 326.033 132.363 325.998C132.052 325.205 131.532 324.529 130.866 324.055C130.201 323.58 129.421 323.329 128.624 323.332C127.827 323.336 127.048 323.593 126.386 324.073C125.724 324.552 125.208 325.233 124.903 326.028C123.683 329.203 122.129 332.383 121.747 335.739C121.578 337.223 121.649 338.727 121.957 340.184C119.091 333.431 117.603 326.091 117.593 318.662C117.592 316.798 117.688 314.935 117.88 313.082C118.039 311.564 118.259 310.056 118.54 308.558C120.076 300.435 123.374 292.821 128.163 286.342C130.481 284.975 132.356 282.874 133.534 280.322C133.961 279.404 134.263 278.425 134.43 277.414C134.169 277.451 133.444 273.149 133.642 272.885C133.277 272.288 132.625 271.991 132.227 271.408C130.248 268.51 127.521 269.016 126.097 272.955C123.056 274.613 123.027 277.363 124.893 280.007C126.08 281.689 126.243 283.966 127.285 285.767C127.178 285.915 127.066 286.059 126.959 286.207C125 288.928 123.293 291.85 121.861 294.931C122.21 291.48 121.794 287.988 120.649 284.744C119.489 281.721 117.315 279.174 115.4 276.56C113.099 273.421 108.383 274.791 107.977 278.771C107.973 278.809 107.97 278.848 107.966 278.886C108.25 279.06 108.529 279.244 108.801 279.438C109.143 279.685 109.409 280.038 109.562 280.451C109.715 280.864 109.75 281.317 109.661 281.751C109.572 282.185 109.363 282.58 109.063 282.884C108.763 283.188 108.384 283.387 107.977 283.454L107.936 283.461C108.037 284.569 108.216 285.666 108.472 286.744C106.015 297.008 111.319 300.746 118.892 300.914C119.059 301.006 119.222 301.099 119.389 301.187C117.951 305.589 117.049 310.175 116.706 314.828C116.512 317.574 116.523 320.331 116.74 323.075L116.727 322.978C116.179 319.927 114.672 317.174 112.462 315.185C109.18 312.272 104.543 311.2 101.002 308.858C100.626 308.597 100.188 308.458 99.741 308.457C99.2939 308.456 98.8557 308.593 98.4782 308.852C98.1007 309.111 97.7997 309.481 97.6106 309.919C97.4215 310.357 97.3522 310.844 97.4109 311.322C97.4157 311.357 97.4205 311.391 97.4254 311.425C97.9533 311.657 98.4672 311.924 98.9642 312.226C99.2487 312.399 99.5271 312.583 99.7995 312.778C100.142 313.025 100.407 313.378 100.56 313.79C100.714 314.203 100.748 314.656 100.659 315.09C100.57 315.524 100.362 315.919 100.061 316.223C99.761 316.527 99.3827 316.726 98.9759 316.794L98.9342 316.801C98.9042 316.805 98.8785 316.81 98.8485 316.815C99.7504 319.141 101.016 321.282 102.591 323.144C104.127 332.104 110.724 332.954 117.782 330.345H117.786C118.56 333.98 119.682 337.518 121.134 340.902H133.093C133.136 340.759 133.174 340.61 133.213 340.467C132.106 340.542 130.995 340.47 129.904 340.254C130.791 339.078 131.678 337.892 132.566 336.716C132.585 336.694 132.604 336.671 132.621 336.647C133.072 336.045 133.526 335.447 133.976 334.846L133.976 334.845C134 333 133.804 331.159 133.393 329.367Z" fill="#F2F2F2"/>
<path d="M143.859 56.0053C143.955 56.0053 144.051 56.0253 144.147 56.0653C144.243 56.0973 144.335 56.1573 144.423 56.2453L146.031 57.9373C145.327 58.8573 144.443 59.5533 143.379 60.0253C142.323 60.4893 141.071 60.7213 139.623 60.7213C138.295 60.7213 137.103 60.4973 136.047 60.0493C134.999 59.5933 134.107 58.9693 133.371 58.1773C132.643 57.3773 132.083 56.4333 131.691 55.3453C131.299 54.2493 131.103 53.0613 131.103 51.7813C131.103 50.4773 131.315 49.2813 131.739 48.1933C132.163 47.0973 132.759 46.1533 133.527 45.3613C134.295 44.5693 135.215 43.9533 136.287 43.5133C137.359 43.0733 138.539 42.8533 139.827 42.8533C140.483 42.8533 141.099 42.9133 141.675 43.0333C142.259 43.1453 142.803 43.3053 143.307 43.5133C143.811 43.7133 144.275 43.9573 144.699 44.2453C145.123 44.5333 145.499 44.8453 145.827 45.1813L144.459 47.0173C144.371 47.1293 144.267 47.2333 144.147 47.3293C144.027 47.4173 143.859 47.4613 143.643 47.4613C143.499 47.4613 143.363 47.4293 143.235 47.3653C143.107 47.3013 142.971 47.2253 142.827 47.1373C142.683 47.0413 142.523 46.9413 142.347 46.8373C142.179 46.7253 141.975 46.6253 141.735 46.5373C141.503 46.4413 141.227 46.3613 140.907 46.2973C140.595 46.2333 140.227 46.2013 139.803 46.2013C139.131 46.2013 138.515 46.3253 137.955 46.5733C137.403 46.8213 136.923 47.1853 136.515 47.6653C136.115 48.1373 135.803 48.7213 135.579 49.4173C135.363 50.1053 135.255 50.8933 135.255 51.7813C135.255 52.6773 135.375 53.4733 135.615 54.1693C135.863 54.8653 136.195 55.4533 136.611 55.9333C137.035 56.4053 137.527 56.7653 138.087 57.0133C138.647 57.2613 139.247 57.3853 139.887 57.3853C140.255 57.3853 140.591 57.3693 140.895 57.3373C141.199 57.2973 141.483 57.2373 141.747 57.1573C142.011 57.0693 142.259 56.9573 142.491 56.8213C142.723 56.6773 142.959 56.4973 143.199 56.2813C143.295 56.2013 143.399 56.1373 143.511 56.0893C143.623 56.0333 143.739 56.0053 143.859 56.0053ZM153.789 55.4653C153.045 55.4973 152.433 55.5613 151.953 55.6573C151.473 55.7533 151.093 55.8733 150.813 56.0173C150.533 56.1613 150.337 56.3253 150.225 56.5093C150.121 56.6933 150.069 56.8933 150.069 57.1093C150.069 57.5333 150.185 57.8333 150.417 58.0093C150.649 58.1773 150.989 58.2613 151.437 58.2613C151.917 58.2613 152.337 58.1773 152.697 58.0093C153.057 57.8413 153.421 57.5693 153.789 57.1933V55.4653ZM147.093 49.8133C147.845 49.1493 148.677 48.6573 149.589 48.3373C150.509 48.0093 151.493 47.8453 152.541 47.8453C153.293 47.8453 153.969 47.9693 154.569 48.2173C155.177 48.4573 155.689 48.7973 156.105 49.2373C156.529 49.6693 156.853 50.1853 157.077 50.7853C157.301 51.3853 157.413 52.0413 157.413 52.7533V60.5293H155.709C155.357 60.5293 155.089 60.4813 154.905 60.3853C154.729 60.2893 154.581 60.0893 154.461 59.7853L154.197 59.1013C153.885 59.3653 153.585 59.5973 153.297 59.7973C153.009 59.9973 152.709 60.1693 152.397 60.3133C152.093 60.4493 151.765 60.5493 151.413 60.6133C151.069 60.6853 150.685 60.7213 150.261 60.7213C149.693 60.7213 149.177 60.6493 148.713 60.5053C148.249 60.3533 147.853 60.1333 147.525 59.8453C147.205 59.5573 146.957 59.2013 146.781 58.7773C146.605 58.3453 146.517 57.8493 146.517 57.2893C146.517 56.8413 146.629 56.3893 146.853 55.9333C147.077 55.4693 147.465 55.0493 148.017 54.6733C148.569 54.2893 149.313 53.9693 150.249 53.7133C151.185 53.4573 152.365 53.3133 153.789 53.2813V52.7533C153.789 52.0253 153.637 51.5013 153.333 51.1813C153.037 50.8533 152.613 50.6893 152.061 50.6893C151.621 50.6893 151.261 50.7373 150.981 50.8333C150.701 50.9293 150.449 51.0373 150.225 51.1573C150.009 51.2773 149.797 51.3853 149.589 51.4813C149.381 51.5773 149.133 51.6253 148.845 51.6253C148.589 51.6253 148.373 51.5613 148.197 51.4333C148.021 51.3053 147.877 51.1533 147.765 50.9773L147.093 49.8133ZM167.699 50.8093C167.603 50.9613 167.499 51.0693 167.387 51.1333C167.283 51.1973 167.147 51.2293 166.979 51.2293C166.803 51.2293 166.627 51.1933 166.451 51.1213C166.275 51.0413 166.083 50.9573 165.875 50.8693C165.675 50.7813 165.447 50.7013 165.191 50.6293C164.935 50.5493 164.643 50.5093 164.315 50.5093C163.843 50.5093 163.479 50.6013 163.223 50.7853C162.975 50.9613 162.851 51.2093 162.851 51.5293C162.851 51.7613 162.931 51.9533 163.091 52.1053C163.259 52.2573 163.479 52.3933 163.751 52.5133C164.023 52.6253 164.331 52.7333 164.675 52.8373C165.019 52.9413 165.371 53.0573 165.731 53.1853C166.091 53.3133 166.443 53.4653 166.787 53.6413C167.131 53.8093 167.439 54.0213 167.711 54.2773C167.983 54.5253 168.199 54.8293 168.359 55.1893C168.527 55.5493 168.611 55.9813 168.611 56.4853C168.611 57.1013 168.499 57.6693 168.275 58.1893C168.051 58.7093 167.715 59.1573 167.267 59.5333C166.827 59.9093 166.279 60.2013 165.623 60.4093C164.975 60.6173 164.227 60.7213 163.379 60.7213C162.955 60.7213 162.531 60.6813 162.107 60.6013C161.683 60.5213 161.271 60.4133 160.871 60.2773C160.479 60.1413 160.115 59.9813 159.779 59.7973C159.443 59.6053 159.155 59.4013 158.915 59.1853L159.779 57.8173C159.875 57.6573 159.995 57.5333 160.139 57.4453C160.291 57.3493 160.483 57.3013 160.715 57.3013C160.931 57.3013 161.123 57.3493 161.291 57.4453C161.467 57.5413 161.655 57.6453 161.855 57.7573C162.055 57.8693 162.287 57.9733 162.551 58.0693C162.823 58.1653 163.163 58.2133 163.571 58.2133C163.859 58.2133 164.103 58.1853 164.303 58.1293C164.503 58.0653 164.663 57.9813 164.783 57.8773C164.903 57.7733 164.991 57.6573 165.047 57.5293C165.103 57.4013 165.131 57.2693 165.131 57.1333C165.131 56.8853 165.047 56.6813 164.879 56.5213C164.711 56.3613 164.491 56.2253 164.219 56.1133C163.947 55.9933 163.635 55.8853 163.283 55.7893C162.939 55.6853 162.587 55.5693 162.227 55.4413C161.867 55.3133 161.511 55.1613 161.159 54.9853C160.815 54.8013 160.507 54.5733 160.235 54.3013C159.963 54.0213 159.743 53.6813 159.575 53.2813C159.407 52.8813 159.323 52.3973 159.323 51.8293C159.323 51.3013 159.423 50.8013 159.623 50.3293C159.831 49.8493 160.139 49.4293 160.547 49.0693C160.955 48.7093 161.467 48.4253 162.083 48.2173C162.699 48.0013 163.419 47.8933 164.243 47.8933C164.691 47.8933 165.123 47.9333 165.539 48.0133C165.963 48.0933 166.359 48.2053 166.727 48.3493C167.095 48.4933 167.431 48.6653 167.735 48.8653C168.039 49.0573 168.307 49.2693 168.539 49.5013L167.699 50.8093ZM174.199 49.1773C174.647 48.7933 175.131 48.4853 175.651 48.2533C176.179 48.0133 176.807 47.8933 177.535 47.8933C178.215 47.8933 178.815 48.0133 179.335 48.2533C179.863 48.4853 180.307 48.8133 180.667 49.2373C181.027 49.6533 181.299 50.1533 181.483 50.7373C181.667 51.3133 181.759 51.9413 181.759 52.6213V60.5293H178.039V52.6213C178.039 52.0133 177.899 51.5413 177.619 51.2053C177.339 50.8613 176.927 50.6893 176.383 50.6893C175.975 50.6893 175.591 50.7773 175.231 50.9533C174.879 51.1213 174.535 51.3533 174.199 51.6493V60.5293H170.479V42.5653H174.199V49.1773ZM193.838 53.8453L192.218 49.0573C192.098 48.7533 191.97 48.3973 191.834 47.9893C191.698 47.5733 191.562 47.1253 191.426 46.6453C191.306 47.1333 191.178 47.5853 191.042 48.0013C190.906 48.4173 190.778 48.7773 190.658 49.0813L189.05 53.8453H193.838ZM200.282 60.5293H197.138C196.786 60.5293 196.502 60.4493 196.286 60.2893C196.07 60.1213 195.906 59.9093 195.794 59.6533L194.762 56.6053H188.114L187.082 59.6533C186.994 59.8773 186.834 60.0813 186.602 60.2653C186.378 60.4413 186.098 60.5293 185.762 60.5293H182.594L189.362 43.0453H193.514L200.282 60.5293ZM204.949 57.1453C205.229 57.4493 205.533 57.6653 205.861 57.7933C206.189 57.9213 206.533 57.9853 206.893 57.9853C207.237 57.9853 207.553 57.9173 207.841 57.7813C208.129 57.6453 208.377 57.4293 208.585 57.1333C208.801 56.8293 208.969 56.4373 209.089 55.9573C209.209 55.4773 209.269 54.8933 209.269 54.2053C209.269 53.5493 209.221 52.9973 209.125 52.5493C209.029 52.1013 208.893 51.7413 208.717 51.4693C208.549 51.1893 208.345 50.9893 208.105 50.8693C207.865 50.7493 207.597 50.6893 207.301 50.6893C206.757 50.6893 206.309 50.7893 205.957 50.9893C205.605 51.1893 205.269 51.4813 204.949 51.8653V57.1453ZM204.721 49.6213C205.209 49.1013 205.761 48.6773 206.377 48.3493C207.001 48.0133 207.741 47.8453 208.597 47.8453C209.245 47.8453 209.845 47.9893 210.397 48.2773C210.949 48.5653 211.425 48.9813 211.825 49.5253C212.225 50.0693 212.537 50.7373 212.761 51.5293C212.993 52.3133 213.109 53.2053 213.109 54.2053C213.109 55.1413 212.977 56.0053 212.713 56.7973C212.457 57.5893 212.093 58.2773 211.621 58.8613C211.157 59.4453 210.597 59.9013 209.941 60.2293C209.293 60.5573 208.573 60.7213 207.781 60.7213C207.133 60.7213 206.589 60.6293 206.149 60.4453C205.709 60.2613 205.309 60.0133 204.949 59.7013V64.4773H201.229V48.0853H203.533C203.997 48.0853 204.301 48.2933 204.445 48.7093L204.721 49.6213ZM218.753 57.1453C219.033 57.4493 219.337 57.6653 219.665 57.7933C219.993 57.9213 220.337 57.9853 220.697 57.9853C221.041 57.9853 221.357 57.9173 221.645 57.7813C221.933 57.6453 222.181 57.4293 222.389 57.1333C222.605 56.8293 222.773 56.4373 222.893 55.9573C223.013 55.4773 223.073 54.8933 223.073 54.2053C223.073 53.5493 223.025 52.9973 222.929 52.5493C222.833 52.1013 222.697 51.7413 222.521 51.4693C222.353 51.1893 222.149 50.9893 221.909 50.8693C221.669 50.7493 221.401 50.6893 221.105 50.6893C220.561 50.6893 220.113 50.7893 219.761 50.9893C219.409 51.1893 219.073 51.4813 218.753 51.8653V57.1453ZM218.525 49.6213C219.013 49.1013 219.565 48.6773 220.181 48.3493C220.805 48.0133 221.545 47.8453 222.401 47.8453C223.049 47.8453 223.649 47.9893 224.201 48.2773C224.753 48.5653 225.229 48.9813 225.629 49.5253C226.029 50.0693 226.341 50.7373 226.565 51.5293C226.797 52.3133 226.913 53.2053 226.913 54.2053C226.913 55.1413 226.781 56.0053 226.517 56.7973C226.261 57.5893 225.897 58.2773 225.425 58.8613C224.961 59.4453 224.401 59.9013 223.745 60.2293C223.097 60.5573 222.377 60.7213 221.585 60.7213C220.937 60.7213 220.393 60.6293 219.953 60.4453C219.513 60.2613 219.113 60.0133 218.753 59.7013V64.4773H215.033V48.0853H217.337C217.801 48.0853 218.105 48.2933 218.249 48.7093L218.525 49.6213Z" fill="#4A62B6"/>
</g>
<defs>
<clipPath id="clip0_369_9467">
<rect width="385" height="345" fill="white"/>
</clipPath>
</defs>
</svg>
