<svg width="46" height="32" viewBox="0 0 46 32" fill="none" xmlns="http://www.w3.org/2000/svg">
<path d="M45.6414 15.9998C45.6414 21.1998 39.6039 25.4498 32.057 25.4498C24.582 25.4498 18.4727 21.1998 18.4727 15.9998C18.4727 10.7998 24.5102 6.5498 31.9852 6.5498C39.6039 6.5498 45.6414 10.7998 45.6414 15.9998Z" fill="#FFB600"/>
<path d="M32.057 6.5498C39.532 6.5498 45.6414 10.7998 45.6414 15.9998C45.6414 21.1998 39.6039 25.4498 32.057 25.4498C24.582 25.4498 18.4727 21.1998 18.4727 15.9998" fill="#E17A01"/>
<path d="M32.0547 6.5498C39.5297 6.5498 45.6391 10.7998 45.6391 15.9998C45.6391 21.1998 39.6016 25.4498 32.0547 25.4498" fill="#FF8500"/>
<path d="M13.8 6.5498C6.39687 6.5998 0.359375 10.7998 0.359375 15.9998C0.359375 21.1998 6.39687 25.4498 13.9437 25.4498C17.4656 25.4498 20.6281 24.4998 23.0719 22.9998C23.575 22.6998 24.0062 22.3498 24.4375 21.9998H21.6344C21.275 21.6998 20.9156 21.3498 20.6281 21.0498H25.4437C25.7312 20.7498 26.0187 20.3998 26.2344 20.0498H19.8375C19.6219 19.7498 19.4062 19.3998 19.2625 19.0498H26.7375C27.1687 18.0998 27.4562 17.0998 27.4562 16.0498C27.4562 15.3498 27.3125 14.6998 27.1687 14.0498H18.8312C18.9031 13.6998 19.0469 13.3998 19.1906 13.0498H26.6656C26.5219 12.6998 26.3062 12.3498 26.0906 12.0498H19.7656C19.9812 11.6998 20.2687 11.3998 20.5562 11.0498H25.3719C25.0844 10.6998 24.725 10.3498 24.2937 10.0498H21.6344C22.0656 9.6998 22.4969 9.3998 23 9.0998C20.6281 7.5498 17.3937 6.6498 13.8719 6.6498C13.8719 6.5498 13.8719 6.5498 13.8 6.5498Z" fill="#FF5050"/>
<path d="M0.359375 15.9994C0.359375 21.1994 6.39687 25.4494 13.9437 25.4494C17.4656 25.4494 20.6281 24.4994 23.0719 22.9994C23.575 22.6994 24.0062 22.3494 24.4375 21.9994H21.6344C21.275 21.6994 20.9156 21.3494 20.6281 21.0494H25.4437C25.7312 20.7494 26.0187 20.3994 26.2344 20.0494H19.8375C19.6219 19.7494 19.4062 19.3994 19.2625 19.0494H26.7375C27.1687 18.0994 27.4562 17.0994 27.4562 16.0494C27.4562 15.3494 27.3125 14.6994 27.1687 14.0494H18.8312C18.9031 13.6994 19.0469 13.3994 19.1906 13.0494H26.6656C26.5219 12.6994 26.3062 12.3494 26.0906 12.0494H19.7656C19.9812 11.6994 20.2687 11.3994 20.5562 11.0494H25.3719C25.0844 10.6994 24.725 10.3494 24.2937 10.0494H21.6344C22.0656 9.69941 22.4969 9.39941 23 9.09941C20.6281 7.54941 17.3937 6.64941 13.8719 6.64941H13.8" fill="#E52836"/>
<path d="M13.9445 25.4494C17.4664 25.4494 20.6289 24.4994 23.0727 22.9994C23.5758 22.6994 24.007 22.3494 24.4383 21.9994H21.6352C21.2758 21.6994 20.9164 21.3494 20.6289 21.0494H25.4445C25.732 20.7494 26.0195 20.3994 26.2352 20.0494H19.8383C19.6227 19.7494 19.407 19.3994 19.2633 19.0494H26.7383C27.1695 18.0994 27.457 17.0994 27.457 16.0494C27.457 15.3494 27.3133 14.6994 27.1695 14.0494H18.832C18.9039 13.6994 19.0477 13.3994 19.1914 13.0494H26.6664C26.5227 12.6994 26.307 12.3494 26.0914 12.0494H19.7664C19.982 11.6994 20.2695 11.3994 20.557 11.0494H25.3727C25.0852 10.6994 24.7258 10.3494 24.2945 10.0494H21.6352C22.0664 9.69941 22.4977 9.39941 23.0008 9.09941C20.6289 7.54941 17.3945 6.64941 13.8727 6.64941H13.8008" fill="#E31515"/>
<path d="M18.7602 18.4L18.9758 17.55C18.9039 17.55 18.7602 17.6 18.6164 17.6C18.1133 17.6 18.0414 17.4 18.1133 17.3L18.5445 15.55H19.3352L19.5508 14.6H18.832L18.9758 14H17.5383C17.5383 14 16.6758 17.3 16.6758 17.7C16.6758 18.3 17.1789 18.55 17.8258 18.55C18.257 18.55 18.6164 18.45 18.7602 18.4Z" fill="white"/>
<path d="M19.2617 16.8003C19.2617 18.2003 20.6273 18.5503 21.7773 18.5503C22.8555 18.5503 23.2867 18.4003 23.2867 18.4003L23.5742 17.4503C23.5742 17.4503 22.7836 17.7003 22.0648 17.7003C20.4836 17.7003 20.7711 16.9003 20.7711 16.9003H23.718C23.718 16.9003 23.9336 16.2503 23.9336 16.0003C23.9336 15.3503 23.4305 14.5503 21.8492 14.5503C20.3398 14.4503 19.2617 15.5503 19.2617 16.8003ZM21.7773 15.3503C22.568 15.3503 22.4242 16.0003 22.4242 16.0503H20.843C20.843 16.0003 20.9867 15.3503 21.7773 15.3503Z" fill="white"/>
<path d="M30.9063 18.3998L31.1938 17.2998C31.1938 17.2998 30.475 17.5498 29.9719 17.5498C28.9656 17.5498 28.5344 16.9998 28.5344 16.3998C28.5344 15.1998 29.3969 14.5498 30.4031 14.5498C31.1219 14.5498 31.6969 14.8498 31.6969 14.8498L31.9125 13.7998C31.9125 13.7998 31.05 13.5498 30.2594 13.5498C28.6062 13.5498 26.9531 14.5498 26.9531 16.4498C26.9531 17.6998 27.8156 18.5498 29.5406 18.5498C30.1156 18.5498 30.9063 18.3998 30.9063 18.3998Z" fill="white"/>
<path d="M10.8523 14.4502C9.84609 14.4502 9.12734 14.6502 9.12734 14.6502L8.91172 15.5002C8.91172 15.5002 9.55859 15.3002 10.493 15.3002C10.9961 15.3002 11.4273 15.3502 11.4273 15.6502C11.4273 15.8502 11.3555 15.9002 11.3555 15.9002C11.3555 15.9002 10.9242 15.9002 10.7086 15.9002C9.48672 15.9002 8.12109 16.2502 8.12109 17.4002C8.12109 18.3002 8.98359 18.5002 9.48672 18.5002C10.493 18.5002 10.9242 18.0502 10.9961 18.0502L10.9242 18.4502H12.218L12.793 15.7002C12.793 14.5002 11.3555 14.4502 10.8523 14.4502ZM11.1398 16.7002C11.1398 16.8502 10.9961 17.6502 10.1336 17.6502C9.70234 17.6502 9.55859 17.4002 9.55859 17.2502C9.55859 17.0002 9.77422 16.6502 10.8523 16.6502C11.068 16.7002 11.1398 16.7002 11.1398 16.7002Z" fill="white"/>
<path d="M14.157 18.4994C14.5164 18.4994 16.3133 18.5494 16.3133 17.1994C16.3133 15.9494 14.5883 16.1994 14.5883 15.6994C14.5883 15.4494 14.8758 15.3494 15.3789 15.3494C15.5945 15.3494 16.3852 15.3994 16.3852 15.3994L16.6008 14.4994C16.6008 14.4994 16.0977 14.3994 15.2352 14.3994C14.157 14.3994 13.0789 14.6994 13.0789 15.6994C13.0789 16.8494 14.8758 16.7494 14.8758 17.1994C14.8758 17.4994 14.3727 17.5494 14.0133 17.5494C13.3664 17.5494 12.7195 17.3994 12.7195 17.3994L12.5039 18.2994C12.5758 18.3994 12.9352 18.4994 14.157 18.4994Z" fill="white"/>
<path d="M42.8352 13.6494L42.5477 14.9994C42.5477 14.9994 41.9727 14.4994 41.182 14.4994C39.8883 14.4994 38.7383 15.5994 38.7383 16.8994C38.7383 17.6994 39.3133 18.5494 40.5352 18.5494C41.3977 18.5494 41.9008 18.1494 41.9008 18.1494L41.8289 18.4994H43.2664L44.3445 13.6994L42.8352 13.6494ZM42.1883 16.2994C42.1883 16.8494 41.8289 17.5494 41.0383 17.5494C40.5352 17.5494 40.2477 17.2494 40.2477 16.7494C40.2477 15.9494 40.7508 15.4494 41.3977 15.4494C41.9008 15.4494 42.1883 15.6994 42.1883 16.2994Z" fill="white"/>
<path d="M3.01797 18.4494L3.88047 14.8494L4.02422 18.4494H5.03047L6.89922 14.8494L6.10859 18.4494H7.61797L8.76797 13.6494H6.39609L4.95859 16.5994L4.88672 13.6494H2.80234L1.65234 18.4494H3.01797Z" fill="white"/>
<path d="M25.3 18.4498C25.7313 16.7998 25.8031 15.4498 26.8094 15.6998C26.9531 15.0498 27.1688 14.7998 27.3125 14.5498C27.3125 14.5498 27.2406 14.5498 27.025 14.5498C26.3781 14.5498 25.875 15.1498 25.875 15.1498L26.0188 14.5998H24.6531L23.7188 18.4998H25.3V18.4498Z" fill="white"/>
<path d="M34.2117 14.4502C33.2055 14.4502 32.4867 14.6502 32.4867 14.6502L32.2711 15.5002C32.2711 15.5002 32.918 15.3002 33.8523 15.3002C34.3555 15.3002 34.7867 15.3502 34.7867 15.6502C34.7867 15.8502 34.7148 15.9002 34.7148 15.9002C34.7148 15.9002 34.2836 15.9002 34.068 15.9002C32.8461 15.9002 31.4805 16.2502 31.4805 17.4002C31.4805 18.3002 32.343 18.5002 32.8461 18.5002C33.8523 18.5002 34.2836 18.0502 34.3555 18.0502L34.2836 18.4502H35.5773L36.1523 15.7002C36.2242 14.5002 34.7148 14.4502 34.2117 14.4502ZM34.5711 16.7002C34.5711 16.8502 34.4273 17.6502 33.5648 17.6502C33.1336 17.6502 32.9898 17.4002 32.9898 17.2502C32.9898 17.0002 33.2055 16.6502 34.2836 16.6502C34.4992 16.7002 34.4992 16.7002 34.5711 16.7002Z" fill="white"/>
<path d="M37.3742 18.4498C37.8055 16.7998 37.8773 15.4498 38.8836 15.6998C39.0273 15.0498 39.243 14.7998 39.3867 14.5498C39.3867 14.5498 39.3148 14.5498 39.0992 14.5498C38.4523 14.5498 37.9492 15.1498 37.9492 15.1498L38.093 14.5998H36.7273L35.793 18.4998H37.3742V18.4498Z" fill="white"/>
<path d="M16.5312 17.7C16.5312 18.3 17.0344 18.55 17.6813 18.55C18.1844 18.55 18.6156 18.45 18.7594 18.4L18.975 17.55C18.9031 17.55 18.7594 17.6 18.6156 17.6C18.1125 17.6 18.0406 17.4 18.1125 17.3L18.5437 15.55H19.3344L19.55 14.6H18.8313L18.975 14" fill="#DCE5E5"/>
<path d="M19.9805 16.8003C19.9805 18.2003 20.6273 18.5503 21.7773 18.5503C22.8555 18.5503 23.2867 18.4003 23.2867 18.4003L23.5742 17.4503C23.5742 17.4503 22.7836 17.7003 22.0648 17.7003C20.4836 17.7003 20.7711 16.9003 20.7711 16.9003H23.718C23.718 16.9003 23.9336 16.2503 23.9336 16.0003C23.9336 15.3503 23.4305 14.5503 21.8492 14.5503C20.3398 14.4503 19.9805 15.5503 19.9805 16.8003ZM21.7773 15.3503C22.568 15.3503 22.7117 16.0003 22.7117 16.0503H20.843C20.843 16.0003 20.9867 15.3503 21.7773 15.3503Z" fill="#DCE5E5"/>
<path d="M30.9062 18.3998L31.1938 17.2998C31.1938 17.2998 30.475 17.5498 29.9719 17.5498C28.9656 17.5498 28.5344 16.9998 28.5344 16.3998C28.5344 15.1998 29.3969 14.5498 30.4031 14.5498C31.1219 14.5498 31.6969 14.8498 31.6969 14.8498L31.9125 13.7998C31.9125 13.7998 31.05 13.5498 30.2594 13.5498C28.6062 13.5498 27.6719 14.5498 27.6719 16.4498C27.6719 17.6998 27.8156 18.5498 29.5406 18.5498C30.1156 18.5498 30.9062 18.3998 30.9062 18.3998Z" fill="#DCE5E5"/>
<path d="M8.91172 15.5498C8.91172 15.5498 9.55859 15.3498 10.493 15.3498C10.9961 15.3498 11.4273 15.3998 11.4273 15.6998C11.4273 15.8998 11.3555 15.9498 11.3555 15.9498C11.3555 15.9498 10.9242 15.9498 10.7086 15.9498C9.48672 15.9498 8.12109 16.2998 8.12109 17.4498C8.12109 18.3498 8.98359 18.5498 9.48672 18.5498C10.493 18.5498 10.9242 18.0998 10.9961 18.0998L10.9242 18.4998H12.218L12.793 15.7498C12.793 14.5998 11.3555 14.5498 10.7805 14.5498M11.8586 16.6998C11.8586 16.8498 10.9961 17.6498 10.1336 17.6498C9.70234 17.6498 9.55859 17.3998 9.55859 17.2498C9.55859 16.9998 9.77422 16.6498 10.8523 16.6498C11.068 16.6998 11.8586 16.6998 11.8586 16.6998Z" fill="#DCE5E5"/>
<path d="M12.5781 18.3994C12.5781 18.3994 13.0094 18.4994 14.2312 18.4994C14.5906 18.4994 16.3875 18.5494 16.3875 17.1994C16.3875 15.9494 14.6625 16.1994 14.6625 15.6994C14.6625 15.4494 14.95 15.3494 15.4531 15.3494C15.6688 15.3494 16.4594 15.3994 16.4594 15.3994L16.675 14.4994C16.675 14.4994 16.1719 14.3994 15.3094 14.3994C14.2312 14.3994 13.8719 14.6994 13.8719 15.6994C13.8719 16.8494 14.95 16.7494 14.95 17.1994C14.95 17.4994 14.4469 17.5494 14.0875 17.5494" fill="#DCE5E5"/>
<path d="M42.549 15.0002C42.549 15.0002 41.974 14.5002 41.1833 14.5002C39.8896 14.5002 39.4583 15.6002 39.4583 16.9002C39.4583 17.7002 39.3146 18.5502 40.5365 18.5502C41.399 18.5502 41.9021 18.1502 41.9021 18.1502L41.8302 18.5002H43.2677L44.3458 13.7002M42.4771 16.3002C42.4771 16.8502 41.8302 17.5502 41.0396 17.5502C40.5365 17.5502 40.249 17.2502 40.249 16.7502C40.249 15.9502 40.7521 15.4502 41.399 15.4502C41.9021 15.4502 42.4771 15.7002 42.4771 16.3002Z" fill="#DCE5E5"/>
<path d="M3.01797 18.4494L3.88047 14.8494L4.02422 18.4494H5.03047L6.89922 14.8494L6.10859 18.4494H7.61797L8.76797 13.6494H6.97109L4.95859 16.5994L4.88672 13.6494H4.09609L1.65234 18.4494H3.01797Z" fill="#DCE5E5"/>
<path d="M23.7891 18.4498H25.2984C25.7297 16.7998 25.8016 15.4498 26.8078 15.6998C26.9516 15.0498 27.1672 14.7998 27.3109 14.5498C27.3109 14.5498 27.2391 14.5498 27.0234 14.5498C26.3766 14.5498 25.8734 15.1498 25.8734 15.1498L26.0172 14.5998" fill="#DCE5E5"/>
<path d="M32.2711 15.5498C32.2711 15.5498 32.918 15.3498 33.8523 15.3498C34.3555 15.3498 34.7867 15.3998 34.7867 15.6998C34.7867 15.8998 34.7148 15.9498 34.7148 15.9498C34.7148 15.9498 34.2836 15.9498 34.068 15.9498C32.8461 15.9498 31.4805 16.2998 31.4805 17.4498C31.4805 18.3498 32.343 18.5498 32.8461 18.5498C33.8523 18.5498 34.2836 18.0998 34.3555 18.0998L34.2836 18.4998H35.5773L36.1523 15.7498C36.1523 14.5998 34.7148 14.5498 34.1398 14.5498M35.218 16.6998C35.218 16.8498 34.3555 17.6498 33.493 17.6498C33.0617 17.6498 32.918 17.3998 32.918 17.2498C32.918 16.9998 33.1336 16.6498 34.2117 16.6498C34.4992 16.6998 35.218 16.6998 35.218 16.6998Z" fill="#DCE5E5"/>
<path d="M35.8633 18.4498H37.3727C37.8039 16.7998 37.8758 15.4498 38.882 15.6998C39.0258 15.0498 39.2414 14.7998 39.3852 14.5498C39.3852 14.5498 39.3133 14.5498 39.0977 14.5498C38.4508 14.5498 37.9477 15.1498 37.9477 15.1498L38.0914 14.5998" fill="#DCE5E5"/>
</svg>
